<?xml version="1.0" encoding="UTF-8" standalone="no"?>
<!-- Created with Inkscape (http://www.inkscape.org/) -->

<svg
   width="210mm"
   height="297mm"
   viewBox="0 0 210 297"
   version="1.1"
   id="svg60583"
   inkscape:version="1.1.2 (0a00cf5339, 2022-02-04)"
   sodipodi:docname="labSign.svg"
   xmlns:inkscape="http://www.inkscape.org/namespaces/inkscape"
   xmlns:sodipodi="http://sodipodi.sourceforge.net/DTD/sodipodi-0.dtd"
   xmlns="http://www.w3.org/2000/svg"
   xmlns:svg="http://www.w3.org/2000/svg">
  <sodipodi:namedview
     id="namedview60585"
     pagecolor="#ffffff"
     bordercolor="#666666"
     borderopacity="1.0"
     inkscape:pageshadow="2"
     inkscape:pageopacity="0.0"
     inkscape:pagecheckerboard="0"
     inkscape:document-units="mm"
     showgrid="false"
     inkscape:zoom="0.24283731"
     inkscape:cx="1369.2294"
     inkscape:cy="310.90774"
     inkscape:window-width="1070"
     inkscape:window-height="689"
     inkscape:window-x="0"
     inkscape:window-y="0"
     inkscape:window-maximized="1"
     inkscape:current-layer="layer1" />
  <defs
     id="defs60580" />
  <g
     inkscape:label="Layer 1"
     inkscape:groupmode="layer"
     id="layer1">
    <path
       id="path19465"
       style="fill:#338395;fill-opacity:1;stroke:#000000;stroke-width:0.264999"
       d="m 197.34413,101.253 a 12.937549,4.0660975 28.543405 0 1 14.24909,6.9345 12.937549,4.0660975 28.543405 0 1 1.33884,1.1581 l 20.79229,26.4475 a 12.937549,4.0660975 28.543405 0 0 1.33885,1.158 12.937549,4.0660975 28.543405 0 0 15.90361,7.1309 l 0.26164,0.3327 h -10.72596 -1.29966 a 12.937549,4.0660975 28.543405 0 1 -14.23771,-6.9344 12.937549,4.0660975 28.543405 0 1 -1.33884,-1.1581 l -20.79229,-26.4475 a 12.937549,4.0660975 28.543405 0 0 -1.33884,-1.158 12.937549,4.0660975 28.543405 0 0 -15.90364,-7.1309 l -0.26163,-0.3328 h 10.72597 z"
       inkscape:export-filename="/home/ethan/path9898-1.png"
       inkscape:export-xdpi="300"
       inkscape:export-ydpi="300" />
    <path
       id="path19467"
       style="fill:#505050;fill-opacity:1;stroke:none;stroke-width:0.264999"
       d="m 197.34413,101.253 a 12.937549,4.0660975 28.543405 0 1 14.24909,6.9345 12.937549,4.0660975 28.543405 0 1 1.33884,1.1581 l 20.79229,26.4475 a 12.937549,4.0660975 28.543405 0 0 1.33885,1.158 12.937549,4.0660975 28.543405 0 0 15.90361,7.1309 l 0.26164,0.3327 h -10.72596 -1.29966 a 12.937549,4.0660975 28.543405 0 1 -14.23771,-6.9344 12.937549,4.0660975 28.543405 0 1 -1.33884,-1.1581 l -20.79229,-26.4475 a 12.937549,4.0660975 28.543405 0 0 -1.33884,-1.158 12.937549,4.0660975 28.543405 0 0 -15.90364,-7.1309 l -0.26163,-0.3328 h 10.72597 z"
       inkscape:export-filename="/home/ethan/path9898-1.png"
       inkscape:export-xdpi="300"
       inkscape:export-ydpi="300" />
    <path
       id="path19469"
       style="fill:#646464;fill-opacity:1;stroke:#000000;stroke-width:0.264999"
       d="m 192.47078,143.8856 a 4.0660975,12.937549 61.456595 0 0 14.24908,-6.9345 4.0660975,12.937549 61.456595 0 0 1.33884,-1.1581 l 20.79229,-26.4474 a 4.0660975,12.937549 61.456595 0 1 1.33884,-1.1581 4.0660975,12.937549 61.456595 0 1 15.90364,-7.1308 l 0.26163,-0.3328 h -10.72596 -1.29966 a 4.0660975,12.937549 61.456595 0 0 -14.23771,6.9344 4.0660975,12.937549 61.456595 0 0 -1.33884,1.1581 l -20.79229,26.4475 a 4.0660975,12.937549 61.456595 0 1 -1.33884,1.158 4.0660975,12.937549 61.456595 0 1 -15.90364,7.1309 l -0.26163,0.3328 h 10.72596 z"
       inkscape:export-filename="/home/ethan/path9898-1.png"
       inkscape:export-xdpi="300"
       inkscape:export-ydpi="300" />
    <path
       id="path19471"
       style="fill:#3c3c3c;fill-opacity:1;stroke:none;stroke-width:0.417567"
       d="m 72.15933,76.274 a 20.891186,6.252166 43.392413 0 1 19.43427,14.6214 20.891186,6.252166 43.392413 0 1 2.01991,2.4418 l 34.6102,55.765 a 20.891186,6.252166 43.392413 0 0 2.02002,2.4419 20.891186,6.252166 43.392413 0 0 21.45777,15.0355 l 0.43543,0.7017 h -12.63046 -1.53051 a 20.891186,6.252166 43.392413 0 1 -19.42083,-14.6214 20.891186,6.252166 43.392413 0 1 -2.02002,-2.4419 L 81.92501,94.453 A 20.891186,6.252166 43.392413 0 0 79.90502,92.0112 20.891186,6.252166 43.392413 0 0 58.44724,76.9757 L 58.01166,76.274 h 12.63061 z"
       inkscape:export-filename="/home/ethan/path9898-1.png"
       inkscape:export-xdpi="300"
       inkscape:export-ydpi="300" />
    <path
       id="path19473"
       style="fill:#a0a0a0;fill-opacity:1;stroke:none;stroke-width:0.314145"
       d="m 242.43791,76.5466 -83.80987,5e-4 h -10.94041 a 5.1632627,14.317772 43.133485 0 0 -12.95218,10.7115 5.1632627,14.317772 43.133485 0 0 -1.21803,1.789 L 114.6018,129.902 a 5.1632627,14.317772 43.133485 0 1 -1.21804,1.789 5.1632627,14.317772 43.133485 0 1 -14.46784,11.0153 l -0.23823,0.5137 h 9.75807 1.1715 a 5.1632627,14.317772 43.133485 0 0 12.96302,-10.7115 5.1632627,14.317772 43.133485 0 0 1.21804,-1.789 l 18.91564,-40.8544 a 5.1632627,14.317772 43.133485 0 1 1.21801,-1.789 5.1632627,14.317772 43.133485 0 1 6.49055,-6.8673 l 102.94204,0.356 a 12.677694,4.3443601 34.587796 0 1 4.11911,3.3833 12.677694,4.3443601 34.587796 0 1 1.24542,1.3033 l 19.33941,29.7697 a 12.677694,4.3443601 34.587796 0 0 1.2454,1.3038 12.677694,4.3443601 34.587796 0 0 13.2539,7.8052 l 63.8891,0.6786 v -5.6385 h -63.5542 a 12.677694,4.3443601 34.587796 0 1 -4.1961,-3.4411 12.677694,4.3443601 34.587796 0 1 -1.2455,-1.3038 L 268.1118,85.6561 a 12.677694,4.3443601 34.587796 0 0 -1.2454,-1.3038 12.677694,4.3443601 34.587796 0 0 -13.24313,-7.8057 h -1.20872 z"
       inkscape:export-filename="/home/ethan/path9898-1.png"
       inkscape:export-xdpi="300"
       inkscape:export-ydpi="300" />
    <path
       id="path19475"
       style="fill:#646464;fill-opacity:1;stroke:none;stroke-width:0.264999"
       d="m 138.02791,100.7239 a 12.937549,4.0660975 28.543405 0 1 14.24909,6.9345 12.937549,4.0660975 28.543405 0 1 1.33884,1.158 l 20.79229,26.4475 a 12.937549,4.0660975 28.543405 0 0 1.33885,1.1581 12.937549,4.0660975 28.543405 0 0 15.90361,7.1308 l 0.26164,0.3328 h -10.72596 -1.29966 a 12.937549,4.0660975 28.543405 0 1 -14.23771,-6.9345 12.937549,4.0660975 28.543405 0 1 -1.33884,-1.158 l -20.79229,-26.4475 a 12.937549,4.0660975 28.543405 0 0 -1.33884,-1.1581 12.937549,4.0660975 28.543405 0 0 -15.90364,-7.1308 l -0.26163,-0.3328 h 10.72597 z"
       inkscape:export-filename="/home/ethan/path9898-1.png"
       inkscape:export-xdpi="300"
       inkscape:export-ydpi="300" />
    <path
       id="path19477"
       style="fill:#646464;fill-opacity:1;stroke:none;stroke-width:0.264999"
       d="m 83.77108,143.8859 a 4.0661193,12.937569 61.456391 0 0 14.24908,-6.93455 4.0661193,12.937569 61.456391 0 0 1.33884,-1.1581 l 20.79229,-26.44759 a 4.0661193,12.937569 61.456391 0 1 1.33884,-1.15811 4.0661193,12.937569 61.456391 0 1 15.90364,-7.13085 l 0.26163,-0.3328 h -10.72596 -1.29966 a 4.0661193,12.937569 61.456391 0 0 -14.23771,6.93444 4.0661193,12.937569 61.456391 0 0 -1.33884,1.15811 l -20.79229,26.44769 a 4.0661193,12.937569 61.456391 0 1 -1.33884,1.15801 4.0661193,12.937569 61.456391 0 1 -15.90364,7.13095 l -0.26163,0.3328 h 10.72596 z"
       inkscape:export-filename="/home/ethan/path9898-1.png"
       inkscape:export-xdpi="300"
       inkscape:export-ydpi="300" />
    <path
       id="path19479"
       style="fill:#a0a0a0;fill-opacity:1;stroke:none;stroke-width:0.264999"
       d="m 55.98458,100.3911 a 12.937549,4.0660975 28.543405 0 1 14.24909,6.9345 12.937549,4.0660975 28.543405 0 1 1.33884,1.158 l 20.79229,26.4475 a 12.937549,4.0660975 28.543405 0 0 1.33885,1.1581 12.937549,4.0660975 28.543405 0 0 15.90361,7.1308 l 0.26164,0.3328 H 99.14294 97.84328 a 12.937549,4.0660975 28.543405 0 1 -14.23771,-6.9345 12.937549,4.0660975 28.543405 0 1 -1.33884,-1.158 L 61.47444,109.0128 a 12.937549,4.0660975 28.543405 0 0 -1.33884,-1.1581 12.937549,4.0660975 28.543405 0 0 -15.90364,-7.1308 l -0.26163,-0.3328 H 54.6963 Z"
       inkscape:export-filename="/home/ethan/path9898-1.png"
       inkscape:export-xdpi="300"
       inkscape:export-ydpi="300" />
    <path
       id="path19481"
       style="fill:#3c3c3c;fill-opacity:1;stroke:none;stroke-width:0.389649"
       d="m -41.43894,75.8918 a 18.525121,6.139418 58.166561 0 1 13.68826,15.6067 18.525121,6.139418 58.166561 0 1 1.28611,2.6063 l 19.97396,59.5226 a 18.525121,6.139418 58.166561 0 0 1.28618,2.6063 18.525121,6.139418 58.166561 0 0 15.27769,16.0486 l 0.25129,0.749 H 0.02081 -1.22774 a 18.525121,6.139418 58.166561 0 1 -13.67733,-15.6067 18.525121,6.139418 58.166561 0 1 -1.28619,-2.6063 L -36.16513,95.2957 A 18.525121,6.139418 58.166561 0 0 -37.45131,92.6894 18.525121,6.139418 58.166561 0 0 -52.729,76.6408 l -0.25139,-0.749 h 10.30384 z"
       inkscape:export-filename="/home/ethan/path9898-1.png"
       inkscape:export-xdpi="300"
       inkscape:export-ydpi="300" />
    <path
       id="path19483"
       style="fill:#a0a0a0;fill-opacity:1;stroke:none;stroke-width:0.264999"
       d="m -4.88983,143.8856 a 4.0660975,12.937549 61.456595 0 0 14.24908,-6.9345 4.0660975,12.937549 61.456595 0 0 1.33884,-1.1581 l 20.79229,-26.4474 a 4.0660975,12.937549 61.456595 0 1 1.33884,-1.1581 4.0660975,12.937549 61.456595 0 1 15.90364,-7.1308 l 0.26163,-0.3328 H 38.26853 36.96887 a 4.0660975,12.937549 61.456595 0 0 -14.23771,6.9344 4.0660975,12.937549 61.456595 0 0 -1.33884,1.1581 L 0.60003,135.2639 a 4.0660975,12.937549 61.456595 0 1 -1.33884,1.158 4.0660975,12.937549 61.456595 0 1 -15.90364,7.1309 l -0.26163,0.3328 h 10.72596 z"
       inkscape:export-filename="/home/ethan/path9898-1.png"
       inkscape:export-xdpi="300"
       inkscape:export-ydpi="300" />
    <path
       id="path19485"
       style="fill:#646464;fill-opacity:1;stroke:none;stroke-width:0.264999"
       d="m 30.65558,100.7239 a 12.937549,4.0660975 28.543405 0 1 14.24909,6.9344 12.937549,4.0660975 28.543405 0 1 1.33884,1.1581 l 20.79229,26.4475 a 12.937549,4.0660975 28.543405 0 0 1.33885,1.1581 12.937549,4.0660975 28.543405 0 0 15.90361,7.1308 l 0.26164,0.3328 H 73.81394 72.51428 A 12.937549,4.0660975 28.543405 0 1 58.27657,136.9511 12.937549,4.0660975 28.543405 0 1 56.93773,135.793 L 36.14544,109.3456 a 12.937549,4.0660975 28.543405 0 0 -1.33884,-1.1581 12.937549,4.0660975 28.543405 0 0 -15.90364,-7.1308 l -0.26163,-0.3328 H 29.3673 Z"
       inkscape:export-filename="/home/ethan/path9898-1.png"
       inkscape:export-xdpi="300"
       inkscape:export-ydpi="300" />
    <path
       id="path19487"
       style="fill:#646464;fill-opacity:1;stroke:none;stroke-width:0.264999"
       d="m -24.65959,143.8856 a 4.0660975,12.937549 61.456595 0 0 14.24908,-6.9345 4.0660975,12.937549 61.456595 0 0 1.33884,-1.1581 l 20.79229,-26.4474 a 4.0660975,12.937549 61.456595 0 1 1.33884,-1.1581 4.0660975,12.937549 61.456595 0 1 15.90364,-7.1308 l 0.26163,-0.3328 H 18.49877 17.19911 a 4.0660975,12.937549 61.456595 0 0 -14.23771,6.9344 4.0660975,12.937549 61.456595 0 0 -1.33884,1.1581 l -20.79229,26.4475 a 4.0660975,12.937549 61.456595 0 1 -1.33884,1.158 4.0660975,12.937549 61.456595 0 1 -15.90364,7.1309 l -0.26163,0.3328 h 10.72596 z"
       inkscape:export-filename="/home/ethan/path9898-1.png"
       inkscape:export-xdpi="300"
       inkscape:export-ydpi="300" />
    <path
       id="path19489"
       style="fill:#a0a0a0;fill-opacity:1;stroke:none;stroke-width:0.264999"
       d="m -58.1958,100.7239 a 12.937549,4.0660975 28.543405 0 1 14.24909,6.9344 12.937549,4.0660975 28.543405 0 1 1.33884,1.1581 l 20.79229,26.4475 a 12.937549,4.0660975 28.543405 0 0 1.33885,1.1581 12.937549,4.0660975 28.543405 0 0 15.90361,7.1308 l 0.26164,0.3328 h -10.72596 -1.29966 a 12.937549,4.0660975 28.543405 0 1 -14.23771,-6.9345 12.937549,4.0660975 28.543405 0 1 -1.33884,-1.1581 l -20.79229,-26.4474 a 12.937549,4.0660975 28.543405 0 0 -1.33884,-1.1581 12.937549,4.0660975 28.543405 0 0 -15.90364,-7.1308 l -0.26163,-0.3328 h 10.72597 z"
       inkscape:export-filename="/home/ethan/path9898-1.png"
       inkscape:export-xdpi="300"
       inkscape:export-ydpi="300" />
    <path
       id="path19491"
       style="fill:#a0a0a0;fill-opacity:1;stroke:none;stroke-width:0.264999"
       d="m -118.32268,143.8856 a 4.0660975,12.937549 61.456595 0 0 14.24908,-6.9345 4.0660975,12.937549 61.456595 0 0 1.33884,-1.1581 l 20.79229,-26.4474 a 4.0660975,12.937549 61.456595 0 1 1.33884,-1.1581 4.0660975,12.937549 61.456595 0 1 15.90364,-7.1308 l 0.26163,-0.3328 h -10.72596 -1.29966 a 4.0660975,12.937549 61.456595 0 0 -14.23771,6.9344 4.0660975,12.937549 61.456595 0 0 -1.33884,1.1581 l -20.79229,26.4475 a 4.0660975,12.937549 61.456595 0 1 -1.33884,1.158 4.0660975,12.937549 61.456595 0 1 -15.90364,7.1309 l -0.26163,0.3328 h 10.72596 z"
       inkscape:export-filename="/home/ethan/path9898-1.png"
       inkscape:export-xdpi="300"
       inkscape:export-ydpi="300" />
    <path
       id="path19493"
       style="fill:#646464;fill-opacity:1;stroke:none;stroke-width:0.264999"
       d="m -82.05763,100.7239 a 12.937549,4.0660975 28.543405 0 1 14.24909,6.9344 12.937549,4.0660975 28.543405 0 1 1.33884,1.1581 l 20.79229,26.4475 a 12.937549,4.0660975 28.543405 0 0 1.33885,1.1581 12.937549,4.0660975 28.543405 0 0 15.90361,7.1308 l 0.26164,0.3328 h -10.72596 -1.29966 a 12.937549,4.0660975 28.543405 0 1 -14.23771,-6.9345 12.937549,4.0660975 28.543405 0 1 -1.33884,-1.1581 l -20.79229,-26.4474 a 12.937549,4.0660975 28.543405 0 0 -1.33884,-1.1581 12.937549,4.0660975 28.543405 0 0 -15.90364,-7.1308 l -0.26163,-0.3328 h 10.72597 z"
       inkscape:export-filename="/home/ethan/path9898-1.png"
       inkscape:export-xdpi="300"
       inkscape:export-ydpi="300" />
    <path
       id="path19495"
       style="fill:#646464;fill-opacity:1;stroke:none;stroke-width:0.264999"
       d="m -140.01865,143.8856 a 4.0660975,12.937549 61.456595 0 0 14.24908,-6.9345 4.0660975,12.937549 61.456595 0 0 1.33884,-1.1581 l 20.79229,-26.4474 a 4.0660975,12.937549 61.456595 0 1 1.33884,-1.1581 4.0660975,12.937549 61.456595 0 1 15.90364,-7.1308 l 0.26163,-0.3328 h -10.72596 -1.29966 a 4.0660975,12.937549 61.456595 0 0 -14.23771,6.9344 4.0660975,12.937549 61.456595 0 0 -1.33884,1.1581 l -20.79229,26.4475 a 4.0660975,12.937549 61.456595 0 1 -1.33884,1.158 4.0660975,12.937549 61.456595 0 1 -15.90361,7.1309 l -0.2617,0.3328 h 10.726 z"
       inkscape:export-filename="/home/ethan/path9898-1.png"
       inkscape:export-xdpi="300"
       inkscape:export-ydpi="300" />
    <path
       id="path19497"
       style="fill:#3c3c3c;fill-opacity:1;stroke:none;stroke-width:0.264999"
       d="m 409.0657,145.3577 a 4.0660975,12.937549 61.456595 0 0 14.2491,-6.9345 4.0660975,12.937549 61.456595 0 0 1.3388,-1.158 l 20.7923,-26.4475 a 4.0660975,12.937549 61.456595 0 1 1.3389,-1.1581 4.0660975,12.937549 61.456595 0 1 15.9036,-7.1308 l 0.2616,-0.3328 h -10.7259 -1.2997 a 4.0660975,12.937549 61.456595 0 0 -14.2377,6.9345 4.0660975,12.937549 61.456595 0 0 -1.3388,1.158 l -20.7923,26.4475 a 4.0660975,12.937549 61.456595 0 1 -1.3389,1.1581 4.0660975,12.937549 61.456595 0 1 -15.9036,7.1308 l -0.2616,0.3328 h 10.7259 z"
       inkscape:export-filename="/home/ethan/path9898-1.png"
       inkscape:export-xdpi="300"
       inkscape:export-ydpi="300" />
    <path
       id="path19499"
       style="fill:#3c3c3c;fill-opacity:1;stroke:none;stroke-width:0.355506"
       d="m -155.09911,105.6252 a 16.350705,5.7903105 38.546358 0 1 16.42085,10.8297 16.350705,5.7903105 38.546358 0 1 1.54285,1.8085 l 23.96133,41.3033 a 16.350705,5.7903105 38.546358 0 0 1.54297,1.8086 16.350705,5.7903105 38.546358 0 0 18.32752,11.1363 l 0.30147,0.5197 h -12.36067 -1.49778 a 16.350705,5.7903105 38.546358 0 1 -16.40773,-10.8296 16.350705,5.7903105 38.546358 0 1 -1.54296,-1.8087 l -23.96122,-41.3032 a 16.350705,5.7903105 38.546358 0 0 -1.54295,-1.8086 16.350705,5.7903105 38.546358 0 0 -18.32755,-11.1363 l -0.30158,-0.5197 h 12.3608 z"
       inkscape:export-filename="/home/ethan/path9898-1.png"
       inkscape:export-xdpi="300"
       inkscape:export-ydpi="300" />
    <path
       id="path19501"
       style="fill:#646464;fill-opacity:1;stroke:none;stroke-width:0.264999"
       d="m 407.0429,102.0779 a 12.937549,4.0660975 28.543405 0 1 14.2491,6.9345 12.937549,4.0660975 28.543405 0 1 1.3388,1.1581 l 20.7923,26.4474 a 12.937549,4.0660975 28.543405 0 0 1.3389,1.1581 12.937549,4.0660975 28.543405 0 0 15.9036,7.1308 l 0.2616,0.3328 h -10.726 -1.2996 a 12.937549,4.0660975 28.543405 0 1 -14.2377,-6.9344 12.937549,4.0660975 28.543405 0 1 -1.3389,-1.1581 l -20.7923,-26.4475 a 12.937549,4.0660975 28.543405 0 0 -1.3388,-1.1581 12.937549,4.0660975 28.543405 0 0 -15.9036,-7.1308 l -0.2617,-0.3328 h 10.726 z"
       inkscape:export-filename="/home/ethan/path9898-1.png"
       inkscape:export-xdpi="300"
       inkscape:export-ydpi="300" />
    <path
       id="path19503"
       style="fill:#3c3c3c;fill-opacity:1;stroke:none;stroke-width:0.389649"
       d="m -52.98039,75.8918 a 6.139418,18.525121 31.833439 0 0 -13.68828,15.6067 6.139418,18.525121 31.833439 0 0 -1.28611,2.6063 l -19.97396,59.5226 a 6.139418,18.525121 31.833439 0 1 -1.28618,2.6063 6.139418,18.525121 31.833439 0 1 -15.27769,16.0486 l -0.25128,0.749 h 10.30373 1.24856 a 6.139418,18.525121 31.833439 0 0 13.67732,-15.6067 6.139418,18.525121 31.833439 0 0 1.2862,-2.6063 l 19.97385,-59.5226 a 6.139418,18.525121 31.833439 0 1 1.2862,-2.6063 6.139418,18.525121 31.833439 0 1 15.27768,-16.0486 l 0.2514,-0.749 H -51.7428 Z"
       inkscape:export-filename="/home/ethan/path9898-1.png"
       inkscape:export-xdpi="300"
       inkscape:export-ydpi="300" />
    <path
       id="path19505"
       style="fill:#3c3c3c;fill-opacity:1;stroke:none;stroke-width:0.418706"
       d="m 58.77976,76.274 a 6.7813359,19.366136 36.946254 0 0 -15.86832,15.5452 6.7813359,19.366136 36.946254 0 0 -1.49092,2.5961 l -23.15508,59.2884 a 6.7813359,19.366136 36.946254 0 1 -1.49104,2.596 6.7813359,19.366136 36.946254 0 1 -17.71083,15.9855 l -0.29131,0.7461 H 10.71699 12.1644 A 6.7813359,19.366136 36.946254 0 0 28.02001,157.4861 6.7813359,19.366136 36.946254 0 0 29.51105,154.89 L 52.666,95.6016 A 6.7813359,19.366136 36.946254 0 1 54.15704,93.0055 6.7813359,19.366136 36.946254 0 1 71.86791,77.02 l 0.29142,-0.746 H 60.21445 Z"
       inkscape:export-filename="/home/ethan/path9898-1.png"
       inkscape:export-xdpi="300"
       inkscape:export-ydpi="300" />
    <path
       id="path19507"
       style="fill:#505050;fill-opacity:1;stroke:none;stroke-width:0.291087"
       d="m 185.23847,101.4256 a 4.7396942,13.391729 38.45384 0 0 -11.26807,10.5805 4.7396942,13.391729 38.45384 0 0 -1.05875,1.767 l -16.44238,40.3533 a 4.7396942,13.391729 38.45384 0 1 -1.05875,1.767 4.7396942,13.391729 38.45384 0 1 -12.57645,10.8801 l -0.20691,0.5078 h 8.48201 1.02776 a 4.7396942,13.391729 38.45384 0 0 11.25907,-10.5805 4.7396942,13.391729 38.45384 0 0 1.05874,-1.767 l 16.44239,-40.3533 a 4.7396942,13.391729 38.45384 0 1 1.05874,-1.767 4.7396942,13.391729 38.45384 0 1 12.57648,-10.8802 l 0.2069,-0.5077 h -8.48202 z"
       inkscape:export-filename="/home/ethan/path9898-1.png"
       inkscape:export-xdpi="300"
       inkscape:export-ydpi="300" />
    <path
       id="path19509"
       style="fill:#646464;fill-opacity:1;stroke:none;stroke-width:0.264999"
       d="m 233.27107,100.7239 0.26146,0.3328 a 12.937549,4.0660976 28.543405 0 1 15.90394,7.1309 12.937549,4.0660976 28.543405 0 1 1.33895,1.158 l 20.79198,26.4475 a 12.937549,4.0660976 28.543405 0 0 1.339,1.1581 12.937549,4.0660976 28.543405 0 0 13.0163,6.6606 l 0.1747,0.2738 56.0078,0.9555 -0.1587,0.2021 h 10.726 1.2883 a 4.0660976,12.937549 61.456595 0 0 14.2492,-6.9345 4.0660976,12.937549 61.456595 0 0 1.3384,-1.158 l 20.7926,-26.4475 a 4.0660976,12.937549 61.456595 0 1 1.3389,-1.1581 4.0660976,12.937549 61.456595 0 1 15.9034,-7.1308 l 0.2621,-0.3328 h -10.726 -1.2997 a 4.0660976,12.937549 61.456595 0 0 -14.2379,6.9344 4.0660976,12.937549 61.456595 0 0 -1.3389,1.1581 l -20.792,26.4475 -77.7678,-1.1415 a 12.937549,4.0660976 28.543405 0 1 -0.018,-0.016 l -20.792,-26.4475 a 12.937549,4.0660976 28.543405 0 0 -1.33897,-1.1581 12.937549,4.0660976 28.543405 0 0 -14.23789,-6.9344 h -1.29966 z"
       inkscape:export-filename="/home/ethan/path9898-1.png"
       inkscape:export-xdpi="300"
       inkscape:export-ydpi="300" />
    <path
       id="path19511"
       style="fill:#3c3c3c;fill-opacity:1;stroke:none;stroke-width:0.222337px;stroke-linecap:butt;stroke-linejoin:miter;stroke-opacity:1"
       d="m 296.199,87.8787 -0.011,0.016 a 4.8684468,13.856163 52.609341 0 0 -14.0622,8.9876 4.8684468,13.856163 52.609341 0 0 -1.3239,1.5022 l -20.5559,34.3044 a 4.8684468,13.856163 52.609341 0 1 -1.32394,1.5022 4.8684468,13.856163 52.609341 0 1 -15.72255,9.2491 l -0.25892,0.4315 h 10.60402 1.28519 a 4.8684468,13.856163 52.609341 0 0 14.0756,-8.9943 4.8684468,13.856163 52.609341 0 0 1.324,-1.5022 l 20.5558,-34.3044 a 4.8684468,13.856163 52.609341 0 1 1.3239,-1.5022 4.8684468,13.856163 52.609341 0 1 2.5327,-2.3999 l 60.0351,0.8816 a 14.302062,4.9711906 36.061226 0 1 2.946,2.6624 14.302062,4.9711906 36.061226 0 1 1.3849,1.5136 l 21.5067,34.557 a 14.302062,4.9711906 36.061226 0 0 1.3849,1.5131 14.302062,4.9711906 36.061226 0 0 14.7273,9.061 h 1.3441 11.0949 l -0.2707,-0.4351 a 14.302062,4.9711906 36.061226 0 1 -16.4502,-9.3173 14.302062,4.9711906 36.061226 0 1 -1.3849,-1.5131 L 369.4527,99.5348 a 14.302062,4.9711906 36.061226 0 0 -1.3843,-1.5136 14.302062,4.9711906 36.061226 0 0 -14.7392,-9.0604 h -0.037 l -0.07,-0.1095 -45.2469,-0.7721 0.1147,-0.1912 h -10.6039 -0.7126 z"
       inkscape:export-filename="/home/ethan/path9898-1.png"
       inkscape:export-xdpi="300"
       inkscape:export-ydpi="300" />
    <path
       d="m -130.98483,52.1985 c 8.89001,0 16.08668,-4.1628 19.89668,-10.8656 l -9.80723,-3.5983 c -2.18722,4.0922 -6.49111,5.2916 -10.01889,5.2916 -6.70278,0 -11.85334,-5.3622 -11.85334,-15.24 0,-9.5955 5.15056,-15.24 11.71223,-15.24 3.81,0 7.69056,1.5523 9.80723,5.3622 l 9.87778,-3.5983 C -114.96871,7.6779 -121.8126,3.374 -130.7026,3.374 c -14.60501,0 -23.8478,9.525 -23.8478,24.4122 0,15.0284 8.89001,24.4123 23.56557,24.4123 z"
       style="font-weight:bold;font-size:70.5556px;line-height:1.25;font-family:'Atkinson Hyperlegible';-inkscape-font-specification:'Atkinson Hyperlegible, Bold';letter-spacing:0px;stroke-width:0.264583"
       id="path19515" />
    <path
       d="M -94.71927,51.3518 V 33.3601 c 0,-6.35 1.97556,-9.6661 6.49112,-9.6661 5.15056,0 5.36223,4.0922 5.36223,9.0311 v 18.6267 h 10.72445 V 30.044 c 0,-9.4544 -2.75167,-14.6755 -11.78279,-14.6755 -5.36222,0 -9.24278,3.0338 -10.79501,5.6444 V 4.2207 h -10.72445 v 47.1311 z"
       style="font-weight:bold;font-size:70.5556px;line-height:1.25;font-family:'Atkinson Hyperlegible';-inkscape-font-specification:'Atkinson Hyperlegible, Bold';letter-spacing:0px;stroke-width:0.264583"
       id="path19517" />
    <path
       d="m -67.485,33.6424 c 0,11.5711 7.83168,18.5561 19.19113,18.5561 5.715,0 11.64167,-2.4695 15.31056,-7.8317 l -8.53722,-3.1044 c -1.34056,1.5522 -3.73945,2.6105 -7.05556,2.6105 -3.95112,0 -7.76112,-2.3989 -8.1139,-7.3378 h 25.89391 c 0.70555,-12.3472 -6.42056,-21.1666 -17.92113,-21.1666 -10.23056,0 -18.76779,7.1261 -18.76779,18.2739 z m 19.05002,-10.3012 c 4.16278,0 7.54945,2.3284 7.69056,6.8439 h -15.94557 c 0.635,-4.7977 4.23334,-6.8439 8.25501,-6.8439 z"
       style="font-weight:bold;font-size:70.5556px;line-height:1.25;font-family:'Atkinson Hyperlegible';-inkscape-font-specification:'Atkinson Hyperlegible, Bold';letter-spacing:0px;stroke-width:0.264583"
       id="path19519" />
    <path
       d="m -12.09885,52.1985 c 3.81,0 7.97279,-1.5522 10.93612,-5.5739 l 1.41111,4.7272 H 10.47895 C 9.49117,46.2013 9.2795,41.1918 9.2795,37.664 V 4.2207 H -1.44495 V 21.154 c -2.25778,-3.8805 -6.8439,-5.7855 -10.6539,-5.7855 -9.03111,0 -15.45167,6.7733 -15.45167,18.2033 0,11.43 6.42056,18.6267 15.45167,18.6267 z M -8.64162,23.694 c 4.16278,0 7.69056,2.9634 7.69056,10.0895 0,7.2672 -3.52778,10.0894 -7.69056,10.0894 -4.23334,0 -7.76112,-3.81 -7.76112,-10.3011 0,-6.4206 3.52778,-9.8778 7.76112,-9.8778 z"
       style="font-weight:bold;font-size:70.5556px;line-height:1.25;font-family:'Atkinson Hyperlegible';-inkscape-font-specification:'Atkinson Hyperlegible, Bold';letter-spacing:0px;stroke-width:0.264583"
       id="path19521" />
    <path
       d="m 14.50053,24.5407 h 6.63223 V 51.3518 H 31.92777 V 16.3562 H 14.50053 Z m 12.06501,-13.97 c 3.52778,0 6.35,-2.8928 6.35,-6.35 0,-3.5278 -2.82222,-6.35 -6.35,-6.35 -3.52778,0 -6.35,2.8222 -6.35,6.35 0,3.4572 2.82222,6.35 6.35,6.35 z"
       style="font-weight:bold;font-size:70.5556px;line-height:1.25;font-family:'Atkinson Hyperlegible';-inkscape-font-specification:'Atkinson Hyperlegible, Bold';letter-spacing:0px;stroke-width:0.264583"
       id="path19523" />
    <path
       d="M 38.55989,16.3562 V 51.3518 H 49.28434 V 33.3601 c 0,-6.35 1.97556,-9.6661 6.49112,-9.6661 5.15056,0 5.36222,4.0922 5.36222,9.0311 V 51.3518 H 71.86214 V 30.044 c 0,-9.4544 -2.75167,-14.6755 -11.78279,-14.6755 -5.36223,0 -9.24278,3.0338 -10.79501,5.6444 l -1.34055,-4.6567 z"
       style="font-weight:bold;font-size:70.5556px;line-height:1.25;font-family:'Atkinson Hyperlegible';-inkscape-font-specification:'Atkinson Hyperlegible, Bold';letter-spacing:0px;stroke-width:0.264583"
       id="path19525" />
    <path
       d="M 112.21981,41.5446 V 4.2207 h -11.14778 v 47.1311 h 33.72558 v -9.8072 z"
       style="font-weight:bold;font-size:70.5556px;line-height:1.25;font-family:'Atkinson Hyperlegible';-inkscape-font-specification:'Atkinson Hyperlegible, Bold';letter-spacing:0px;stroke-width:0.264583"
       id="path19527" />
    <path
       d="m 138.04303,41.8974 c 0,6.35 5.43278,10.3011 12.06501,10.3011 5.00945,0 9.10167,-1.4111 11.71223,-5.08 l 1.27,4.2333 h 9.94834 c -0.70555,-3.0339 -1.19944,-9.1017 -1.19944,-13.6878 v -7.6905 c 0,-10.5834 -5.5739,-14.605 -15.52224,-14.605 -8.04334,0 -13.68778,3.5277 -16.01612,8.1844 l 9.03112,3.2456 c 0.70555,-2.8223 3.10445,-4.1628 6.06778,-4.1628 3.73945,0 5.85612,1.4817 5.85612,5.5033 v 1.3406 c -13.54668,0.9877 -23.2128,3.8805 -23.2128,12.4178 z m 23.42446,-6.0678 v 0.8466 c 0,6.4206 -3.175,8.1845 -7.40834,8.1845 -2.82222,0 -4.93889,-1.4817 -4.93889,-3.7394 0,-3.6689 4.93889,-4.6567 12.34723,-5.2917 z"
       style="font-weight:bold;font-size:70.5556px;line-height:1.25;font-family:'Atkinson Hyperlegible';-inkscape-font-specification:'Atkinson Hyperlegible, Bold';letter-spacing:0px;stroke-width:0.264583"
       id="path19529" />
    <path
       d="m 178.89459,4.2207 v 47.1311 h 9.3839 l 1.34055,-4.7272 c 2.25778,3.8805 6.91445,5.5739 10.6539,5.5739 9.03112,0 15.45168,-7.1967 15.45168,-18.6267 0,-11.43 -6.42056,-18.2033 -15.45168,-18.2033 -3.73945,0 -8.39612,1.905 -10.6539,5.7855 V 4.2207 Z m 10.23057,29.5628 c 0,-7.1261 3.52778,-10.0895 7.76111,-10.0895 4.16278,0 7.69056,3.4572 7.69056,9.8778 0,6.4911 -3.52778,10.3011 -7.69056,10.3011 -4.23333,0 -7.76111,-2.8222 -7.76111,-10.0894 z"
       style="font-weight:bold;font-size:70.5556px;line-height:1.25;font-family:'Atkinson Hyperlegible';-inkscape-font-specification:'Atkinson Hyperlegible, Bold';letter-spacing:0px;stroke-width:0.264583"
       id="path19531" />
    <path
       d="m 55.64057,210.3812 q 3.12642,0 4.47001,-1.1627 1.36943,-1.1627 1.36943,-3.8241 0,-2.6355 -1.36943,-3.7724 -1.34359,-1.1368 -4.47001,-1.1368 h -4.1858 v 9.896 z m -4.1858,6.873 v 14.5986 h -9.94772 v -38.5765 h 15.19288 q 7.62228,0 11.16212,2.558 3.56568,2.558 3.56568,8.0873 0,3.8241 -1.86036,6.2787 -1.83451,2.4547 -5.55522,3.6174 2.04122,0.4651 3.64319,2.1187 1.62781,1.6278 3.28146,4.961 l 5.40019,10.9554 H 65.74332 l -4.70256,-9.586 q -1.42111,-2.8939 -2.89388,-3.9533 -1.44695,-1.0593 -3.87574,-1.0593 z"
       id="path19533"
       style="font-weight:bold;font-size:52.9167px;line-height:1.25;-inkscape-font-specification:'sans-serif, Bold';letter-spacing:0px;stroke-width:0.264583" />
    <path
       d="m 80.2644,212.8617 h 16.22641 v 7.5189 H 80.2644 Z"
       id="path19535"
       style="font-weight:bold;font-size:52.9167px;line-height:1.25;-inkscape-font-specification:'sans-serif, Bold';letter-spacing:0px;stroke-width:0.264583" />
    <path
       d="m 103.80303,191.6485 h 9.25009 v 40.2043 h -9.25009 z"
       id="path19537"
       style="font-weight:bold;font-size:52.9167px;line-height:1.25;-inkscape-font-specification:'sans-serif, Bold';letter-spacing:0px;stroke-width:0.264583" />
    <path
       d="m 135.71324,208.8309 q -3.07475,0 -4.70255,2.2221 -1.60197,2.1962 -1.60197,6.3562 0,4.1599 1.60197,6.382 1.6278,2.1963 4.70255,2.1963 3.02308,0 4.62505,-2.1963 1.60197,-2.2221 1.60197,-6.382 0,-4.1601 -1.60197,-6.3562 -1.60197,-2.2221 -4.62505,-2.2221 z m 0,-6.6146 q 7.46725,0 11.65305,4.0308 4.21163,4.0307 4.21163,11.1621 0,7.1313 -4.21163,11.1621 -4.1858,4.0308 -11.65305,4.0308 -7.49308,0 -11.73055,-4.0308 -4.21163,-4.0308 -4.21163,-11.1621 0,-7.1314 4.21163,-11.1621 4.23747,-4.0308 11.73055,-4.0308 z"
       id="path19539"
       style="font-weight:bold;font-size:52.9167px;line-height:1.25;-inkscape-font-specification:'sans-serif, Bold';letter-spacing:0px;stroke-width:0.264583" />
    <path
       d="m 172.06764,208.8309 q -3.07474,0 -4.70255,2.2221 -1.60197,2.1962 -1.60197,6.3562 0,4.1599 1.60197,6.382 1.62781,2.1963 4.70255,2.1963 3.02308,0 4.62505,-2.1963 1.60197,-2.2221 1.60197,-6.382 0,-4.1601 -1.60197,-6.3562 -1.60197,-2.2221 -4.62505,-2.2221 z m 0,-6.6146 q 7.46725,0 11.65305,4.0308 4.21163,4.0307 4.21163,11.1621 0,7.1313 -4.21163,11.1621 -4.1858,4.0308 -11.65305,4.0308 -7.49308,0 -11.73055,-4.0308 -4.21163,-4.0308 -4.21163,-11.1621 0,-7.1314 4.21163,-11.1621 4.23747,-4.0308 11.73055,-4.0308 z"
       id="path19541"
       style="font-weight:bold;font-size:52.9167px;line-height:1.25;-inkscape-font-specification:'sans-serif, Bold';letter-spacing:0px;stroke-width:0.264583" />
    <path
       d="m 203.90034,227.667 v 15.1929 h -9.25009 v -39.946 h 9.25009 v 4.2375 q 1.91203,-2.5321 4.23747,-3.7207 2.32544,-1.2144 5.34851,-1.2144 5.34852,0 8.785,4.2633 3.43649,4.2375 3.43649,10.9296 0,6.6921 -3.43649,10.9554 -3.43648,4.2375 -8.785,4.2375 -3.02307,0 -5.34851,-1.1886 -2.32544,-1.2144 -4.23747,-3.7465 z m 6.1495,-18.7327 q -2.9714,0 -4.57337,2.1962 -1.57613,2.1704 -1.57613,6.2787 0,4.1083 1.57613,6.3045 1.60197,2.1704 4.57337,2.1704 2.9714,0 4.52169,-2.1704 1.57613,-2.1704 1.57613,-6.3045 0,-4.1341 -1.57613,-6.3045 -1.55029,-2.1704 -4.52169,-2.1704 z"
       id="path19543"
       style="font-weight:bold;font-size:52.9167px;line-height:1.25;-inkscape-font-specification:'sans-serif, Bold';letter-spacing:0px;stroke-width:0.264583" />
    <path
       d="m 266.3514,225.8841 q 2.9714,0 4.5216,-2.1704 1.5762,-2.1704 1.5762,-6.3045 0,-4.1341 -1.5762,-6.3045 -1.5502,-2.1704 -4.5216,-2.1704 -2.9714,0 -4.5734,2.1962 -1.5761,2.1704 -1.5761,6.2787 0,4.1083 1.5761,6.3045 1.602,2.1704 4.5734,2.1704 z m -6.1495,-18.7327 q 1.912,-2.5321 4.2374,-3.7207 2.3255,-1.2144 5.3485,-1.2144 5.3486,0 8.785,4.2633 3.4365,4.2375 3.4365,10.9296 0,6.6921 -3.4365,10.9554 -3.4364,4.2375 -8.785,4.2375 -3.023,0 -5.3485,-1.1886 -2.3254,-1.2144 -4.2374,-3.7465 v 4.1858 h -9.25013 v -40.2043 h 9.25013 z"
       id="path19545"
       style="font-weight:bold;font-size:52.9167px;line-height:1.25;-inkscape-font-specification:'sans-serif, Bold';letter-spacing:0px;stroke-width:0.264583" />
    <path
       d="m 288.8306,202.9139 h 9.25 v 28.9389 h -9.25 z m 0,-11.2654 h 9.25 v 7.5447 h -9.25 z"
       id="path19547"
       style="font-weight:bold;font-size:52.9167px;line-height:1.25;-inkscape-font-specification:'sans-serif, Bold';letter-spacing:0px;stroke-width:0.264583" />
    <path
       d="m 320.7408,208.8309 q -3.0748,0 -4.7026,2.2221 -1.602,2.1962 -1.602,6.3562 0,4.1599 1.602,6.382 1.6278,2.1963 4.7026,2.1963 3.023,0 4.625,-2.1963 1.602,-2.2221 1.602,-6.382 0,-4.1601 -1.602,-6.3562 -1.602,-2.2221 -4.625,-2.2221 z m 0,-6.6146 q 7.4672,0 11.653,4.0308 4.2116,4.0307 4.2116,11.1621 0,7.1313 -4.2116,11.1621 -4.1858,4.0308 -11.653,4.0308 -7.4931,0 -11.7306,-4.0308 -4.2116,-4.0308 -4.2116,-11.1621 0,-7.1314 4.2116,-11.1621 4.2375,-4.0308 11.7306,-4.0308 z"
       id="path19549"
       style="font-weight:bold;font-size:52.9167px;line-height:1.25;-inkscape-font-specification:'sans-serif, Bold';letter-spacing:0px;stroke-width:0.264583" />
    <path
       d="m 343.3234,191.6485 h 9.2501 v 40.2043 h -9.2501 z"
       id="path19551"
       style="font-weight:bold;font-size:52.9167px;line-height:1.25;-inkscape-font-specification:'sans-serif, Bold';letter-spacing:0px;stroke-width:0.264583" />
    <path
       d="m 375.2336,208.8309 q -3.0747,0 -4.7025,2.2221 -1.602,2.1962 -1.602,6.3562 0,4.1599 1.602,6.382 1.6278,2.1963 4.7025,2.1963 3.0231,0 4.6251,-2.1963 1.6019,-2.2221 1.6019,-6.382 0,-4.1601 -1.6019,-6.3562 -1.602,-2.2221 -4.6251,-2.2221 z m 0,-6.6146 q 7.4673,0 11.6531,4.0308 4.2116,4.0307 4.2116,11.1621 0,7.1313 -4.2116,11.1621 -4.1858,4.0308 -11.6531,4.0308 -7.4931,0 -11.7305,-4.0308 -4.2117,-4.0308 -4.2117,-11.1621 0,-7.1314 4.2117,-11.1621 4.2374,-4.0308 11.7305,-4.0308 z"
       id="path19553"
       style="font-weight:bold;font-size:52.9167px;line-height:1.25;-inkscape-font-specification:'sans-serif, Bold';letter-spacing:0px;stroke-width:0.264583" />
    <path
       d="m 417.505,226.9435 q -1.9121,2.532 -4.2117,3.7207 -2.2996,1.1886 -5.3227,1.1886 -5.2968,0 -8.7591,-4.16 -3.4623,-4.1858 -3.4623,-10.6453 0,-6.4854 3.4623,-10.6196 3.4623,-4.1599 8.7591,-4.1599 3.0231,0 5.3227,1.1884 2.2996,1.1886 4.2117,3.7466 v -4.2891 h 9.3017 v 26.019 q 0,6.9764 -4.4183,10.6455 -4.3925,3.6949 -12.7641,3.6949 -2.713,0 -5.2452,-0.4134 -2.5321,-0.4135 -5.0901,-1.2661 v -7.2089 q 2.4288,1.3952 4.7542,2.067 2.3255,0.6976 4.6768,0.6976 4.5475,0 6.6662,-1.9894 2.1188,-1.9897 2.1188,-6.2272 z m -6.0979,-18.0092 q -2.868,0 -4.47,2.1187 -1.602,2.1187 -1.602,5.9945 0,3.979 1.5503,6.0461 1.5503,2.0412 4.5217,2.0412 2.8939,0 4.4959,-2.1187 1.602,-2.1187 1.602,-5.9686 0,-3.8758 -1.602,-5.9945 -1.602,-2.1187 -4.4959,-2.1187 z"
       id="path19555"
       style="font-weight:bold;font-size:52.9167px;line-height:1.25;-inkscape-font-specification:'sans-serif, Bold';letter-spacing:0px;stroke-width:0.264583" />
    <path
       d="m 431.8968,202.9139 h 9.2501 l 7.7773,19.6371 6.6146,-19.6371 h 9.2501 l -12.1698,31.6777 q -1.8345,4.8318 -4.2891,6.7438 -2.4288,1.9379 -6.4338,1.9379 h -5.3485 v -6.072 h 2.8939 q 2.3513,0 3.4107,-0.7493 1.0852,-0.7493 1.6794,-2.6872 l 0.2584,-0.801 z"
       id="path19557"
       style="font-weight:bold;font-size:52.9167px;line-height:1.25;-inkscape-font-specification:'sans-serif, Bold';letter-spacing:0px;stroke-width:0.264583" />
    <rect
       style="fill:none;fill-opacity:0.260795;stroke:none;stroke-width:4.99999;stroke-miterlimit:4;stroke-dasharray:none"
       id="rect20508"
       width="688.86829"
       height="305.57169"
       x="-196.51193"
       y="-32.213871" />
    <rect
       style="fill:none;fill-opacity:0.260795;stroke:#000000;stroke-width:4.99999;stroke-miterlimit:4;stroke-dasharray:none;stroke-opacity:1"
       id="rect20510"
       width="688.86823"
       height="305.57166"
       x="-196.51193"
       y="-32.213871" />
    <path
       id="path23973"
       style="fill:#141414;fill-opacity:1;stroke:none;stroke-width:3.69994;stroke-miterlimit:4;stroke-dasharray:none;stroke-opacity:1"
       d="m 325.21594,65.417796 a 75.429027,50.432772 0 0 0 -75.42908,50.433004 75.429027,50.432772 0 0 0 75.42908,50.4324 75.429027,50.432772 0 0 0 75.42867,-50.4324 75.429027,50.432772 0 0 0 -75.42867,-50.433004 z m 0,5.0435 a 67.886124,45.389492 0 0 1 67.88582,45.389504 67.886124,45.389492 0 0 1 -67.88582,45.3894 67.886124,45.389492 0 0 1 -67.88631,-45.3894 67.886124,45.389492 0 0 1 67.88631,-45.389504 z" />
  </g>
</svg>
