<svg width="283.5mm" height="188mm" viewBox="0 0 283.5 188" xmlns="http://www.w3.org/2000/svg" version="1.1" preserveAspectRatio="xMidYMid meet"><g id="svgGroup" stroke-linecap="round" fill-rule="evenodd" font-size="9pt" stroke="#000" stroke-width="0.25mm" fill="none" style="stroke:#000;stroke-width:0.25mm;fill:none"><path d="M 0 148 L 0 158.673 L 3.175 158.673 L 3.175 177.327 L 0 177.327 L 0 188 L 18.27 188 L 18.27 184.825 L 36.923 184.825 L 36.923 188 L 55.577 188 L 55.577 184.825 L 74.23 184.825 L 74.23 188 L 92.5 188 L 92.5 177.327 L 89.325 177.327 L 89.325 158.673 L 92.5 158.673 L 92.5 148 L 74.23 148 L 74.23 151.175 L 55.577 151.175 L 55.577 148 L 36.923 148 L 36.923 151.175 L 18.27 151.175 L 18.27 148 L 0 148 Z" id="front_outsideCutPath" stroke="#FF0000" stroke-width="0.1" style="stroke:#FF0000;stroke-width:0.1" vector-effect="non-scaling-stroke"/><path d="M 98.675 148 L 98.675 158.673 L 95.5 158.673 L 95.5 177.327 L 98.675 177.327 L 98.675 188 L 113.77 188 L 113.77 184.825 L 132.423 184.825 L 132.423 188 L 151.077 188 L 151.077 184.825 L 169.73 184.825 L 169.73 188 L 184.825 188 L 184.825 177.327 L 188 177.327 L 188 158.673 L 184.825 158.673 L 184.825 148 L 169.73 148 L 169.73 151.175 L 151.077 151.175 L 151.077 148 L 132.423 148 L 132.423 151.175 L 113.77 151.175 L 113.77 148 L 98.675 148 Z" id="left_outsideCutPath" stroke="#FF0000" stroke-width="0.1" style="stroke:#FF0000;stroke-width:0.1" vector-effect="non-scaling-stroke"/><path d="M 194.175 98.675 L 194.175 113.77 L 191 113.77 L 191 132.423 L 194.175 132.423 L 194.175 151.077 L 191 151.077 L 191 169.73 L 194.175 169.73 L 194.175 184.825 L 209.27 184.825 L 209.27 188 L 227.923 188 L 227.923 184.825 L 246.577 184.825 L 246.577 188 L 265.23 188 L 265.23 184.825 L 280.325 184.825 L 280.325 169.73 L 283.5 169.73 L 283.5 151.077 L 280.325 151.077 L 280.325 132.423 L 283.5 132.423 L 283.5 113.77 L 280.325 113.77 L 280.325 98.675 L 265.23 98.675 L 265.23 95.5 L 246.577 95.5 L 246.577 98.675 L 227.923 98.675 L 227.923 95.5 L 209.27 95.5 L 209.27 98.675 L 194.175 98.675 Z" id="top_outsideCutPath" stroke="#FF0000" stroke-width="0.1" style="stroke:#FF0000;stroke-width:0.1" vector-effect="non-scaling-stroke"/><path d="M 0 105 L 0 115.673 L 3.175 115.673 L 3.175 134.327 L 0 134.327 L 0 145 L 18.27 145 L 18.27 141.825 L 36.923 141.825 L 36.923 145 L 55.577 145 L 55.577 141.825 L 74.23 141.825 L 74.23 145 L 92.5 145 L 92.5 134.327 L 89.325 134.327 L 89.325 115.673 L 92.5 115.673 L 92.5 105 L 74.23 105 L 74.23 108.175 L 55.577 108.175 L 55.577 105 L 36.923 105 L 36.923 108.175 L 18.27 108.175 L 18.27 105 L 0 105 Z" id="back_outsideCutPath" stroke="#FF0000" stroke-width="0.1" style="stroke:#FF0000;stroke-width:0.1" vector-effect="non-scaling-stroke"/><path d="M 98.675 105 L 98.675 115.673 L 95.5 115.673 L 95.5 134.327 L 98.675 134.327 L 98.675 145 L 113.77 145 L 113.77 141.825 L 132.423 141.825 L 132.423 145 L 151.077 145 L 151.077 141.825 L 169.73 141.825 L 169.73 145 L 184.825 145 L 184.825 134.327 L 188 134.327 L 188 115.673 L 184.825 115.673 L 184.825 105 L 169.73 105 L 169.73 108.175 L 151.077 108.175 L 151.077 105 L 132.423 105 L 132.423 108.175 L 113.77 108.175 L 113.77 105 L 98.675 105 Z" id="right_outsideCutPath" stroke="#FF0000" stroke-width="0.1" style="stroke:#FF0000;stroke-width:0.1" vector-effect="non-scaling-stroke"/><path d="M 194.175 3.175 L 194.175 18.27 L 191 18.27 L 191 36.923 L 194.175 36.923 L 194.175 55.577 L 191 55.577 L 191 74.23 L 194.175 74.23 L 194.175 89.325 L 209.27 89.325 L 209.27 92.5 L 227.923 92.5 L 227.923 89.325 L 246.577 89.325 L 246.577 92.5 L 265.23 92.5 L 265.23 89.325 L 280.325 89.325 L 280.325 74.23 L 283.5 74.23 L 283.5 55.577 L 280.325 55.577 L 280.325 36.923 L 283.5 36.923 L 283.5 18.27 L 280.325 18.27 L 280.325 3.175 L 265.23 3.175 L 265.23 0 L 246.577 0 L 246.577 3.175 L 227.923 3.175 L 227.923 0 L 209.27 0 L 209.27 3.175 L 194.175 3.175 Z" id="bottom_outsideCutPath" stroke="#FF0000" stroke-width="0.1" style="stroke:#FF0000;stroke-width:0.1" vector-effect="non-scaling-stroke"/></g></svg>