<?xml version="1.0" encoding="UTF-8" standalone="no"?>
<!-- Created with Inkscape (http://www.inkscape.org/) -->

<svg
   width="622.495mm"
   height="622.495mm"
   viewBox="0 0 622.495 622.495"
   version="1.1"
   id="svg15335"
   inkscape:version="1.1.2 (0a00cf5339, 2022-02-04)"
   sodipodi:docname="chedinLabNerfNight.svg"
   xmlns:inkscape="http://www.inkscape.org/namespaces/inkscape"
   xmlns:sodipodi="http://sodipodi.sourceforge.net/DTD/sodipodi-0.dtd"
   xmlns="http://www.w3.org/2000/svg"
   xmlns:svg="http://www.w3.org/2000/svg">
  <sodipodi:namedview
     id="namedview15337"
     pagecolor="#ffffff"
     bordercolor="#666666"
     borderopacity="1.0"
     inkscape:pageshadow="2"
     inkscape:pageopacity="0.0"
     inkscape:pagecheckerboard="0"
     inkscape:document-units="mm"
     showgrid="false"
     inkscape:zoom="0.12141866"
     inkscape:cx="716.52909"
     inkscape:cy="1157.1533"
     inkscape:window-width="1070"
     inkscape:window-height="689"
     inkscape:window-x="0"
     inkscape:window-y="0"
     inkscape:window-maximized="1"
     inkscape:current-layer="layer1" />
  <defs
     id="defs15332" />
  <g
     inkscape:label="Layer 1"
     inkscape:groupmode="layer"
     id="layer1"
     transform="translate(183.35645,205.31365)">
    <path
       d="m 360.58144,159.74701 c 1.868,-4.036 5.751,-8.343 9.847,-11.77 0.483,-0.402 0.879,-0.437 1.333,-0.78 l 29.373,-17.162 c 0.427,-0.375 0.863,-0.789 1.303,-1.237 4.339,-4.419 8.1,-12.797 8.425,-17.045 l 0.342,-0.256 -0.767,12.045 -0.116,1.329 c -1.155,4.298 -4.867,10.911 -8.697,14.625 -0.451,0.437 -0.959,1.172 -1.404,1.526 l -30.017,15.771 c -0.47,0.321 -0.953,0.678 -1.445,1.069 -4.847,3.854 -9.437,8.557 -10.884,12.564 l -0.398,0.156 2.767,-9.556 z m -60.938,107.012 c 3.613,-2.594 9.192,-4.345 14.443,-5.314 0.618,-0.114 1.213,-0.202 1.778,-0.264 l 33.978,-0.114 c 0.557,-0.117 1.14,-0.263 1.743,-0.437 5.95,-1.717 13.112,-6.686 15.57,-10.166 l 0.426,-0.044 -6.395,9.601 -1.062,1.529 c -3.195,3.097 -9.623,6.984 -14.815,8.209 -0.612,0.144 -1.201,0.261 -1.763,0.351 l -34.033,-1.143 c -0.567,0.048 -0.929,-0.13 -1.551,-0.047 -6.138,0.821 -12.766,2.937 -15.999,5.711 l -0.424,-0.061 7.181,-6.864 z m -105.8123,61.982 c 4.4323,-0.371 9.6773,1 14.7253,2.746 0.593,0.206 1.154,0.423 1.676,0.647 l 29.38,16.941 c 0.537,0.186 1.42,0.237 2.031,0.384 6.021,1.446 14.736,0.745 18.593,-1.066 l 0.392,0.172 -10.802,5.356 -1.213,0.555 c -4.308,1.116 -11.846,1.234 -16.966,-0.263 -0.603,-0.177 -1.173,-0.366 -1.706,-0.565 l -28.798,-18.043 c -0.51,-0.25 -1.06,-0.494 -1.643,-0.729 -5.7458,-2.308 -12.0703,-3.85 -16.269,-3.128 l -0.3319,-0.27 9.6533,-2.4 z m -123.0944,0.806 c 4.0367,1.868 8.3437,5.75 11.7698,9.847 0.4026,0.482 0.4373,0.879 0.7804,1.333 l 17.16173,29.373 c 0.37558,0.427 0.78938,0.863 1.23729,1.303 4.41886,4.339 12.79738,8.099 17.04528,8.425 l 0.256,0.342 -12.0455,-0.767 -1.32918,-0.116 c -4.2973,-1.155 -10.91095,-4.867 -14.62426,-8.697 -0.43693,-0.451 -1.17234,-0.959 -1.52646,-1.404 l -15.771,-30.017 c -0.3205,-0.47 -0.6778,-0.953 -1.0684,-1.445 -3.8544,-4.847 -8.5576,-9.437 -12.5647,-10.884 l -0.1553,-0.398 9.556,2.767 z m -107.0123,-60.938 c 2.595,3.613 4.345,9.191 5.315,14.443 0.113,0.618 0.202,1.213 0.264,1.778 l 0.114,33.978 c 0.117,0.556 0.263,1.139 0.437,1.743 1.717,5.95 6.686,13.112 10.165,15.57 l 0.044,0.425 -9.601,-6.395 -1.528,-1.061 c -3.098,-3.195 -6.984,-9.624 -8.21,-14.815 -0.143,-0.612 -0.261,-1.201 -0.35,-1.763 l 1.143,-34.034 c -0.048,-0.566 0.129,-0.928 0.047,-1.551 -0.821,-6.138 -2.937,-12.765 -5.711,-15.999 l 0.061,-0.423 6.864,7.18 z m -61.981,-105.813 c 0.371,4.433 -1,9.678 -2.746,14.725 -0.206,0.594 -0.423,1.154 -0.648,1.677 l -16.94,29.379 c -0.186,0.538 -0.237,1.42 -0.384,2.031 -1.446,6.022 -0.745,14.737 1.065,18.594 l -0.172,0.391 -5.355,-10.801 -0.556,-1.213 c -1.115,-4.308 -1.233,-11.846 0.264,-16.966 0.177,-0.603 0.365,-1.174 0.565,-1.707 l 18.043,-28.797 c 0.25,-0.511 0.494,-1.06 0.729,-1.643 2.308,-5.746 3.85,-12.071 3.128,-16.269 l 0.27,-0.332 2.399,9.653 z m -0.806,-123.094301 c -1.868,4.0368 -5.751,8.3437 -9.847,11.7699 -0.483,0.4025 -0.879,0.4372 -1.333,0.7803 l -29.373,17.1619 c -0.427,0.3755 -0.863,0.7893 -1.303,1.2373 -4.339,4.4188 -8.1,12.7973 -8.425,17.0453 l -0.342,0.256 0.767,-12.0456 0.116,-1.3291 c 1.155,-4.2973 4.867,-10.911 8.697,-14.6243 0.451,-0.4369 0.959,-1.1723 1.404,-1.5265 l 30.017,-15.7711 c 0.47,-0.3204 0.953,-0.6777 1.445,-1.0683 4.847,-3.8545 9.437,-8.5577 10.884,-12.5648 l 0.398,-0.1553 -2.767,9.5561 z m 60.938,-107.0122 c -3.613,2.5945 -9.192,4.3453 -14.443,5.3149 -0.618,0.1134 -1.213,0.2016 -1.778,0.2635 l -33.978,0.114099 c -0.557,0.1173 -1.14,0.2635 -1.743,0.437201 -5.95,1.717 -13.112,6.6858 -15.57,10.1654 l -0.426,0.044 6.395,-9.601 1.062,-1.5283 c 3.195,-3.0974 9.623,-6.9842 14.815,-8.2095 0.612,-0.1438 1.201,-0.2611 1.763,-0.3509 l 34.033,1.1435 c 0.567,-0.0479 0.929,0.1292 1.551,0.0465 6.138,-0.8204 12.766,-2.9368 15.999,-5.7107 l 0.424,0.0612 -7.181,6.8637 z m 105.8124,-61.981499 c -4.4328,0.371 -9.6778,-1 -14.7249,-2.746 -0.5935,-0.206 -1.1542,-0.423 -1.6766,-0.647 l -29.3796,-16.941 c -0.5374,-0.186 -1.4203,-0.237 -2.031,-0.384 -6.0214,-1.446 -14.7367,-0.745 -18.5934,1.066 l -0.3915,-0.172 10.8014,-5.356 1.2131,-0.555 c 4.3079,-1.116 11.846,-1.234 16.966,0.263 0.6028,0.177 1.1734,0.366 1.7062,0.565 l 28.7974,18.043 c 0.5108,0.25 1.0603,0.494 1.6431,0.729 5.7462,2.308 12.0707,3.85 16.2694,3.128 l 0.332,0.27 -9.6533,2.4 z m 123.0943,-0.806 c -4.0367,-1.868 -8.3436,-5.75 -11.7698,-9.847 -0.4025,-0.482 -0.4372,-0.879 -0.7803,-1.333 l -17.1619,-29.373 c -0.3755,-0.427 -0.7893,-0.863 -1.2373,-1.303 -4.4188,-4.339 -12.7973,-8.099 -17.0453,-8.425 l -0.256,-0.342 12.0456,0.767 1.3291,0.116 c 4.2973,1.155 10.911,4.867 14.6243,8.697 0.4369,0.451 1.1723,0.959 1.5265,1.404 l 15.771,30.017 c 0.3205,0.47 0.6778,0.953 1.0684,1.445 3.8545,4.847 8.558,9.437 12.565,10.884 l 0.155,0.398 -9.556,-2.767 z m 107.0123,60.938398 c -2.595,-3.6132 -4.345,-9.1917 -5.315,-14.4435 -0.113,-0.6179 -0.202,-1.2124 -0.264,-1.7778 l -0.114,-33.978098 c -0.117,-0.556 -0.263,-1.139 -0.437,-1.743 -1.717,-5.95 -6.686,-13.112 -10.165,-15.57 l -0.044,-0.425 9.601,6.395 1.528,1.061 c 3.097,3.195 6.984,9.624 8.21,14.815 0.143,0.612 0.261,1.201 0.35,1.763 l -1.143,34.033599 c 0.048,0.5667 -0.129,0.9285 -0.047,1.5512 0.821,6.138 2.937,12.7652 5.711,15.9989 l -0.061,0.4232 -6.864,-7.1802 z m 61.981,105.8124 c -0.371,-4.4328 1,-9.6777 2.746,-14.7249 0.206,-0.593499 0.423,-1.154199 0.648,-1.676599 l 16.94,-29.3795013 c 0.186,-0.5374 0.237,-1.4202987 0.384,-2.0309997 1.446,-6.0215 0.745,-14.736799 -1.065,-18.593399 l 0.172,-0.3916 5.355,10.8015 0.556,1.2131 c 1.115,4.3079 1.233,11.8459697 -0.264,16.9659792 -0.177,0.60282 -0.365,1.17343 -0.565,1.70618 l -18.043,28.7974398 c -0.25,0.5108 -0.494,1.060301 -0.729,1.643 -2.308,5.7462 -3.85,12.070801 -3.128,16.2695 l -0.27,0.3319 -2.399,-9.6533 z"
       style="fill:#000000;fill-opacity:1;stroke:none;stroke-width:0.264999"
       id="path7442" />
    <path
       d="m 375.06544,238.47001 c 1.533,-4.176 2.472,-12.148 1.353,-17.37 -0.132,-0.614 -0.278,-1.197 -0.438,-1.742 l -15.584,-30.275 c -0.199,-0.533 -0.508,-0.794 -0.7,-1.392 -1.882,-5.9 -2.794,-12.824 -1.666,-16.932 l -0.236,-0.357 -3.146,9.453 -0.465,1.251 c -0.797,4.378 -0.008,10.184 1.363,15.339 0.162,0.607 0.337,1.182 0.524,1.72 l 14.419,30.755 c 0.133,0.553 0.251,1.142 0.353,1.762 1.002,6.111 -0.438,14.709 -2.525,18.423 l 0.142,0.403 5.941,-9.895 z m -101.986,103.481 c 3.397,-2.873 7.799,-9.073 9.531,-14.125 0.203,-0.594 0.65,-1.379 0.781,-1.932 l 1.48,-33.912 c 0.089,-0.562 0.207,-1.151 0.351,-1.763 1.422,-6.027 3.706,-12.204 6.713,-15.222 l -0.03,-0.427 -7.454,6.589 -1.022,0.858 c -2.853,3.415 -5.083,8.775 -6.436,13.935 -0.159,0.608 -0.019,0.994 -0.136,1.55 l -3.014,33.921 c -0.157,0.547 -0.346,1.118 -0.564,1.707 -2.149,5.807 -8.116,12.803 -11.819,14.91 l -0.085,0.419 10.561,-5.843 z m -139.9832,38.705 c 4.3703,-0.829 11.2689,-3.943 15.2603,-7.492 0.4691,-0.417 0.9039,-0.832 1.3001,-1.24 l 18.3138,-28.615 c 0.3541,-0.445 0.746,-0.901 1.1717,-1.363 4.2002,-4.55 9.7483,-8.849 13.8775,-9.898 l 0.1935,-0.382 -10.2772,2.073 -1.3114,0.245 c -4.163,1.572 -8.3197,5.028 -12.1262,8.766 -0.4479,0.44 -0.8617,0.876 -1.2373,1.303 l -19.3132,27.873 c -0.4061,0.398 -1.1941,0.82 -1.6833,1.214 -4.8255,3.881 -13.0332,6.975 -17.2936,6.983 l -0.2807,0.323 12.0837,0.226 z m -141.0828,-36.626 c 4.176,1.534 12.1481,2.473 17.3701,1.354 0.6141,-0.132 1.197,-0.279 1.7429,-0.438 l 30.2744,-15.584 c 0.5327,-0.199 0.7942,-0.508 1.3925,-0.7 5.8997,-1.882 12.824,-2.795 16.9321,-1.666 l 0.3567,-0.236 -9.4534,-3.146 -1.2504,-0.465 c -4.3779,-0.798 -10.1848,-0.008 -15.3397,1.363 -0.607,0.162 -1.182,0.337 -1.7195,0.523 l -30.7553,14.42 c -0.553,0.133 -1.1423,0.251 -1.7622,0.353 -6.1112,1.001 -14.7082,-0.438 -18.4222,-2.526 l -0.403,0.143 9.894,5.94 z m -103.48,-101.985 c 2.872,3.396 9.072,7.799 14.125,9.53 0.594,0.203 1.378,0.651 1.932,0.782 l 33.912,1.479 c 0.561,0.09 1.151,0.207 1.762,0.351 6.028,1.423 12.204,3.707 15.223,6.713 l 0.427,-0.029 -6.589,-7.454 -0.858,-1.022 c -3.415,-2.853 -8.775,-5.084 -13.935,-6.436 -0.608,-0.159 -0.994,-0.019 -1.55,-0.136 l -33.922,-3.014 c -0.546,-0.158 -1.117,-0.347 -1.706,-0.564 -5.808,-2.15 -12.803,-8.116 -14.91,-11.819 l -0.419,-0.085 5.843,10.561 z m -38.705,-139.9837 c 0.829,4.3707 3.943,11.2687 7.492,15.2607 0.417,0.469 0.832,0.903 1.24,1.3 l 28.615,18.314 c 0.445,0.354 0.901,0.746 1.362,1.171 4.551,4.2 8.85,9.749 9.899,13.878 l 0.382,0.193 -2.073,-10.277 -0.245,-1.311 c -1.572,-4.163 -5.029,-8.32 -8.766,-12.127 -0.44,-0.447 -0.876,-0.861 -1.303,-1.237 l -27.873,-19.313 c -0.398,-0.406 -0.82,-1.194 -1.214,-1.683 -3.881,-4.826 -6.975,-13.033601 -6.983,-17.293901 l -0.323,-0.2808 -0.226,12.083601 z m 36.625,-141.082301 c -1.533,4.175699 -2.472,12.147599 -1.353,17.369599 0.132,0.6141 0.278,1.197 0.438,1.7429 l 15.584,30.27432 c 0.199,0.53275 0.508,0.7942 0.7,1.39253 1.882,5.89965 2.794,12.82395 1.666,16.93205 l 0.236,0.3567 3.146,-9.4534 0.465,-1.2504 c 0.797,-4.3779 0.008,-10.1847298 -1.363,-15.3397108 -0.162,-0.606947 -0.337,-1.181998 -0.524,-1.719439 l -14.419,-30.7552492 c -0.133,-0.553 -0.251,-1.142401 -0.353,-1.7622 -1.002,-6.1111 0.438,-14.708601 2.525,-18.4223 l -0.142,-0.403101 -5.941,9.8946 z m 101.986,-103.480999 c -3.397,2.873 -7.799,9.073 -9.531,14.125 -0.203,0.594 -0.65,1.379 -0.781,1.932 l -1.48,33.912098 c -0.089,0.5616 -0.207,1.1511 -0.351,1.762601 -1.422,6.0271 -3.706,12.2039 -6.713,15.222499 l 0.03,0.4266 7.454,-6.5887 1.022,-0.8582 c 2.853,-3.4148 5.083,-8.775 6.436,-13.934899 0.159,-0.6078 0.019,-0.994 0.136,-1.55 l 3.014,-33.920999 c 0.157,-0.547 0.346,-1.118 0.564,-1.707 2.149,-5.807 8.116,-12.803 11.8185,-14.91 l 0.0854,-0.419 -10.5609,5.843 z m 139.9831,-38.705 c -4.3703,0.829 -11.2688,3.943 -15.2602,7.492 -0.4691,0.417 -0.9039,0.832 -1.3001,1.24 l -18.31379,28.615 c -0.35412,0.445 -0.74598,0.901 -1.17168,1.363 -4.20016,4.55 -9.74833,8.849 -13.87753,9.898 l -0.1935,0.382 10.2772,-2.073 1.31139,-0.245 c 4.16303,-1.572 8.31979,-5.028 12.12625,-8.766 0.4479,-0.44 0.8617,-0.876 1.23727,-1.303 l 19.31309,-27.873 c 0.4062,-0.398 1.1941,-0.82 1.6833,-1.214 4.8256,-3.881 13.0333,-6.975 17.2936,-6.983 l 0.2808,-0.323 -12.0837,-0.226 z m 141.0819,36.626 c -4.175,-1.534 -12.147,-2.473 -17.369,-1.354 -0.614,0.132 -1.197,0.279 -1.743,0.438 l -30.274,15.584 c -0.533,0.199 -0.795,0.508 -1.393,0.7 -5.9,1.882 -12.824,2.795 -16.932,1.666 l -0.357,0.236 9.454,3.146 1.25,0.465 c 4.378,0.798 10.185,0.008 15.34,-1.363 0.607,-0.162 1.182,-0.337 1.719,-0.523 l 30.756,-14.42 c 0.553,-0.133 1.142,-0.251 1.762,-0.353 6.111,-1.001 14.708,0.438 18.422,2.526 l 0.403,-0.143 -9.894,-5.94 z m 103.481,101.985299 c -2.872,-3.3966 -9.072,-7.799 -14.125,-9.5305 -0.594,-0.2031 -1.378,-0.6506 -1.932,-0.7815 l -33.912,-1.4796 c -0.561,-0.0898 -1.151,-0.2071 -1.762,-0.3509 -6.027,-1.422401 -12.204,-3.7067 -15.223,-6.7132 l -0.426,0.0296 6.588,7.4543 0.858,1.0215 c 3.415,2.8532 8.775,5.0838 13.935,6.4365 0.608,0.1588 0.994,0.0187 1.55,0.136 l 33.922,3.0135 c 0.546,0.1579 1.117,0.3465 1.706,0.5641 5.808,2.1495 12.803,8.1159 14.91,11.8189 l 0.419,0.0854 -5.843,-10.5611 z m 38.705,139.983399 c -0.829,-4.3703 -3.943,-11.2689 -7.492,-15.2603 -0.417,-0.4691 -0.832,-0.9039 -1.24,-1.3001 l -28.615,-18.3138 c -0.445,-0.3541 -0.901,-0.746 -1.362,-1.1717 -4.551,-4.2002 -8.85,-9.7483 -9.899,-13.877499 l -0.382,-0.193501 2.073,10.2771 0.245,1.3114 c 1.572,4.1631 5.029,8.3198 8.766,12.1263 0.44,0.4479 0.876,0.8617 1.303,1.2373 l 27.873,19.3132 c 0.398,0.4061 0.82,1.1941 1.214,1.6833 3.881,4.8255 6.975,13.033602 6.983,17.293602 l 0.323,0.281 0.226,-12.084002 z"
       style="fill:#000000;fill-opacity:1;stroke:none;stroke-width:0.264999"
       id="path7444" />
    <path
       d="m 339.36205,214.10935 c 2.703,-3.533 7.321,-6.461 12.005,-9.027 0.551,-0.301 1.088,-0.571 1.606,-0.807 l 32.365,-10.35 c 0.499,-0.273 1.015,-0.582 1.543,-0.923 5.2,-3.363 10.641,-10.716 11.891,-14.789 l 0.39,-0.175 -3.345,11.585 -0.403,1.271 c -2.068,3.941 -7.099,9.585 -11.647,12.373 -0.536,0.327 -1.176,0.937 -1.688,1.186 l -32.694,8.863 c -0.529,0.21 -1.078,0.454 -1.644,0.728 -5.57,2.706 -11.039,6.316 -13.325,9.911 l -0.422,0.065 4.759,-8.736 z m -82.543,91.32 c 4.095,-1.736 9.896,-2.268 15.233,-2.056 0.627,0.026 1.227,0.071 1.792,0.136 l 33.086,7.285 c 0.569,0.009 1.17,-0.005 1.797,-0.041 6.182,-0.363 14.667,-3.978 17.759,-6.909 l 0.426,0.04 -8.704,8.367 -0.978,0.908 c -3.741,2.409 -11.265,5.114 -16.599,5.163 -0.629,0.006 -1.229,-0.01 -1.797,-0.046 l -32.887,-8.547 c -0.564,-0.078 -1.162,-0.138 -1.789,-0.179 -6.179,-0.399 -12.784,-0.075 -16.548,1.922 l -0.399,-0.153 8.498,-5.169 z m -117.2298,37.765 c 4.4199,0.502 9.7388,3.015 14.2821,5.822 0.5341,0.331 1.0339,0.665 1.4945,0.998 l 24.9622,22.899 c 0.4839,0.299 1.3334,0.526 1.8973,0.803 5.5615,2.724 14.2167,3.912 18.3747,2.985 l 0.345,0.253 -11.7056,2.901 -1.305,0.277 c -4.4473,0.15 -11.8298,-1.349 -16.4997,-3.927 -0.5497,-0.304 -1.0653,-0.613 -1.5418,-0.924 l -24.1455,-23.831 c -0.4435,-0.356 -0.9263,-0.714 -1.4434,-1.071 -5.1004,-3.512 -11.4373,-6.46 -15.6961,-6.575 l -0.2727,-0.329 10.4683,-0.254 z m -119.8734,-25.79 c 3.5328,2.703 6.461,7.322 9.0268,12.006 0.3013,0.551 0.5712,1.088 0.8071,1.606 l 10.3501,32.365 c 0.2731,0.499 0.5815,1.015 0.9223,1.543 3.3632,5.199 10.7163,10.641 14.7893,11.89 l 0.1746,0.391 -11.5842,-3.345 -1.2717,-0.403 c -3.9402,-2.068 -9.5851,-7.099 -12.3722,-11.648 -0.3277,-0.535 -0.9379,-1.175 -1.1863,-1.687 l -8.863,-32.695 c -0.2104,-0.528 -0.4538,-1.078 -0.7279,-1.643 -2.7058,-5.57 -6.3158,-11.04 -9.9114,-13.325 l -0.0648,-0.423 8.7365,4.76 z m -91.3198,-82.543 c 1.735,4.096 2.268,9.897 2.055,15.233 -0.025,0.628 -0.07,1.227 -0.135,1.792 l -7.286,33.087 c -0.008,0.569 0.006,1.17 0.042,1.797 0.362,6.182 3.978,14.667 6.909,17.759 l -0.041,0.426 -8.366,-8.705 -0.908,-0.978 c -2.41,-3.741 -5.115,-11.265 -5.164,-16.599 -0.005,-0.628 0.011,-1.229 0.047,-1.796 l 8.547,-32.888 c 0.078,-0.563 0.138,-1.161 0.179,-1.788 0.399,-6.18 0.075,-12.784 -1.922,-16.548 l 0.153,-0.4 5.169,8.498 z m -37.765,-117.229 c -0.502,4.42 -3.015,9.739 -5.822,14.282 -0.331,0.534 -0.665,1.034 -0.998,1.494 l -22.899,24.962 c -0.299,0.484 -0.526,1.334 -0.803,1.898 -2.724,5.561 -3.912,14.216 -2.985,18.375 l -0.253,0.345 -2.901,-11.706 -0.277,-1.305 c -0.15,-4.447 1.349,-11.83 3.927,-16.5 0.304,-0.549 0.613,-1.065 0.924,-1.542 l 23.831,-24.145 c 0.356,-0.444 0.714,-0.926 1.071,-1.443 3.512,-5.101 6.46,-11.438 6.575,-15.6966 l 0.329,-0.2727 0.254,10.4683 z m 25.789,-119.8738 c -2.703,3.53277 -7.321,6.46103 -12.005,9.0268 -0.551,0.30127 -1.088,0.5712 -1.606,0.8071 l -32.365,10.35017 c -0.499,0.27309 -1.015,0.58155 -1.543,0.92231 -5.2,3.36322 -10.641,10.71632 -11.891,14.78932 l -0.39,0.1746 3.345,-11.5842 0.403,-1.2716 c 2.068,-3.94023 7.099,-9.58518 11.647,-12.372261 0.536,-0.327781 1.176,-0.937919 1.688,-1.186369 l 32.694,-8.86307 c 0.529,-0.2104 1.078,-0.4538 1.644,-0.7278 5.57,-2.7059003 11.039,-6.3159003 13.325,-9.9116 l 0.422,-0.0648 -4.759,8.7365 z m 82.5434,-91.3202 c -4.0957,1.736 -9.8964,2.268 -15.2334,2.056 -0.627,-0.026 -1.227,-0.071 -1.792,-0.136 l -33.086,-7.285001 c -0.569,-0.009 -1.17,0.005 -1.797,0.041 -6.182,0.363 -14.667,3.978 -17.759,6.909001 l -0.426,-0.04 8.704,-8.367 0.978,-0.908 c 3.741,-2.409 11.265,-5.114 16.599,-5.163 0.629,-0.006 1.229,0.01 1.797,0.046 l 32.887,8.546999 c 0.564,0.078 1.162,0.138 1.789,0.179 6.1794,0.399 12.784,0.075 16.5477,-1.922 l 0.3995,0.153 -8.4979,5.169001 z m 117.2294,-37.765 c -4.4198,-0.502 -9.7388,-3.015 -14.28204,-5.822 -0.53408,-0.331 -1.0339,-0.665 -1.49449,-0.998 l -24.96227,-22.899 c -0.4839,-0.299 -1.3334,-0.526 -1.8973,-0.803 -5.5616,-2.724 -14.2167,-3.912 -18.3751,-2.985 l -0.3447,-0.253 11.7057,-2.901 1.3049,-0.277 c 4.4474,-0.15 11.8298,1.349 16.49975,3.927 0.54971,0.304 1.06534,0.613 1.54178,0.924 l 24.14557,23.831 c 0.4435,0.356 0.9263,0.714 1.4434,1.071 5.1005,3.512 11.4373,6.46 15.6962,6.575 l 0.2726,0.329 -10.4682,0.254 z m 119.8732,25.79 c -3.533,-2.703 -6.461,-7.322 -9.027,-12.006 -0.301,-0.551 -0.571,-1.088 -0.807,-1.606 l -10.35,-32.365 c -0.273,-0.499 -0.581,-1.015 -0.922,-1.543 -3.363,-5.199 -10.716,-10.641 -14.789,-11.89 l -0.175,-0.391 11.584,3.345 1.272,0.403 c 3.94,2.068 9.585,7.099 12.372,11.648 0.328,0.535 0.938,1.175 1.186,1.687 l 8.863,32.695 c 0.211,0.528 0.454,1.078 0.728,1.643 2.706,5.57 6.316,11.04 9.912,13.325 l 0.065,0.423 -8.737,-4.76 z m 91.32,82.5428 c -1.735,-4.0957 -2.268,-9.8967 -2.055,-15.233 0.025,-0.6277 0.07,-1.227 0.135,-1.7921 l 7.286,-33.0867 c 0.008,-0.5687 -0.006,-1.1696 -0.042,-1.7968 -0.362,-6.182 -3.978,-14.6668 -6.909,-17.7592 l 0.041,-0.426 8.366,8.7048 0.908,0.9778 c 2.41,3.741 5.115,11.2652 5.164,16.5992 0.005,0.6282 -0.011,1.2291 -0.047,1.7967 l -8.546,32.8873 c -0.079,0.5633 -0.139,1.1614 -0.18,1.7882 -0.399,6.1798 -0.075,12.7844 1.922,16.5481 l -0.153,0.3995 -5.169,-8.4979 z m 37.765,117.2295 c 0.502,-4.4199 3.015,-9.7389 5.822,-14.2821 0.331,-0.5341 0.665,-1.0339 0.998,-1.4945 l 22.899,-24.9622 c 0.299,-0.4839 0.526,-1.3334 0.803,-1.8973 2.724,-5.5615 3.912,-14.2167 2.985,-18.375 l 0.253,-0.3448 2.901,11.7057 0.277,1.305 c 0.15,4.4473 -1.349,11.8298 -3.927,16.4997 -0.304,0.5497 -0.613,1.0653 -0.924,1.5418 l -23.831,24.1454 c -0.356,0.4436 -0.714,0.9264 -1.071,1.4435 -3.512,5.1004 -6.46,11.4373 -6.575,15.6961 l -0.329,0.2727 -0.254,-10.4683 z"
       style="fill:#000000;fill-opacity:1;stroke:none;stroke-width:0.264999"
       id="path7446" />
    <path
       d="m 402.31705,165.30835 c 0.153,-4.446 -1.378,-11.846 -3.959,-16.522 -0.304,-0.55 -0.613,-1.065 -0.923,-1.542 l -23.901,-24.161 c -0.356,-0.444 -0.714,-0.926 -1.071,-1.443 -3.512,-5.101 -6.495,-11.443 -6.61,-15.702 l -0.329,-0.2727 -0.237,10.4717 -0.049,1.333 c 0.615,4.407 3.092,9.206 5.897,13.744 0.331,0.534 0.665,1.034 0.998,1.494 l 22.95,24.977 c 0.299,0.484 0.595,1.007 0.885,1.564 2.86,5.493 3.88,14.567 2.953,18.725 l 0.253,0.345 2.868,-11.718 z m -66.663,129.507 c 2.413,-3.738 5.086,-11.307 5.136,-16.647 0.005,-0.628 -0.01,-1.229 -0.047,-1.797 l -8.585,-32.923 c -0.078,-0.564 -0.318,-0.876 -0.374,-1.502 -0.551,-6.168 0.079,-13.104 2.076,-16.868 l -0.153,-0.399 -5.142,8.52 -0.727,1.119 c -1.732,4.099 -2.236,9.916 -2.022,15.246 0.025,0.628 0.071,1.227 0.135,1.792 l 7.336,33.137 c 0.008,0.569 -0.006,1.17 -0.042,1.797 -0.363,6.182 -3.658,14.256 -6.511,17.42 l 0.05,0.424 7.971,-8.35 z m -122.108,78.509 c 3.941,-2.064 9.585,-7.132 12.376,-11.685 0.328,-0.536 0.933,-1.193 1.182,-1.704 l 8.847,-32.745 c 0.211,-0.529 0.454,-1.078 0.728,-1.644 2.706,-5.57 6.297,-11.089 9.892,-13.374 l 0.065,-0.422 -8.724,4.792 -1.184,0.613 c -3.532,2.708 -6.886,7.441 -9.334,12.181 -0.287,0.558 -0.237,0.957 -0.473,1.475 l -10.337,32.417 c -0.273,0.498 -0.582,1.014 -0.922,1.542 -3.364,5.2 -10.707,10.693 -14.78,11.943 l -0.175,0.39 11.578,-3.379 z m -145.0294,7.036 c 4.4457,0.153 11.8459,-1.379 16.52166,-3.959 0.54971,-0.304 1.06534,-0.613 1.54178,-0.924 l 24.16146,-23.9 c 0.4436,-0.356 0.9264,-0.714 1.4435,-1.071 5.1005,-3.512 11.4428,-6.495 15.7016,-6.61 l -0.2636,-0.329 -9.9352,-0.237 -1.3332,-0.049 c -4.4071,0.615 -9.2064,3.092 -13.74386,5.897 -0.53409,0.331 -1.03391,0.665 -1.4945,0.998 l -24.97634,22.95 c -0.484,0.299 -1.007,0.595 -1.564,0.885 -5.4931,2.859 -14.5675,3.879 -18.7259,2.953 l -0.3447,0.253 11.7178,2.868 z m -129.5066,-66.663 c 3.737,2.412 11.307,5.086 16.647,5.136 0.628,0.005 1.229,-0.011 1.796,-0.047 l 32.924,-8.585 c 0.563,-0.078 0.876,-0.318 1.501,-0.374 6.1685,-0.551 13.1049,0.079 16.8685,2.075 l 0.3995,-0.152 -8.5202,-5.142 -1.119,-0.727 c -4.0988,-1.732 -9.9168,-2.236 -15.2468,-2.023 -0.627,0.026 -1.227,0.071 -1.792,0.136 l -33.137,7.335 c -0.569,0.009 -1.169,-0.005 -1.797,-0.042 -6.182,-0.362 -14.255,-3.658 -17.419,-6.511 l -0.425,0.051 8.351,7.97 z m -78.509,-122.109 c 2.064,3.941 7.132,9.585 11.685,12.376 0.536,0.328 1.193,0.934 1.704,1.182 l 32.745,8.848 c 0.529,0.21 1.078,0.454 1.643,0.728 5.571,2.706 11.089,6.296 13.374,9.892 l 0.423,0.065 -4.792,-8.724 -0.614,-1.185 c -2.707,-3.531 -7.44,-6.886 -12.18,-9.333 -0.558,-0.288 -0.958,-0.237 -1.475,-0.473 l -32.417,-10.338 c -0.499,-0.273 -1.014,-0.581 -1.542,-0.922 -5.2,-3.363 -10.693,-10.707 -11.943,-14.78 l -0.39,-0.175 3.379,11.579 z m -7.036,-145.0288 c -0.153,4.4456 1.378,11.8458 3.959,16.5216 0.304,0.5497 0.613,1.0653 0.923,1.5418 l 23.901,24.1614 c 0.356,0.4436 0.714,0.9263 1.071,1.4434 3.512,5.1005 6.495,11.4428 6.61,15.7016 l 0.329,-0.2635 0.237,-9.9352 0.049,-1.3333 c -0.615,-4.407 -3.092,-9.2063 -5.897,-13.7438 -0.331,-0.5341 -0.665,-1.0339 -0.998,-1.4945 l -22.95,-24.9763 c -0.299,-0.4839 -0.595,-1.007 -0.885,-1.564 -2.86,-5.4931 -3.88,-14.5675 -2.953,-18.7258 l -0.253,-0.3448 -2.868,11.7179 z m 66.663,-129.5069 c -2.413,3.7374 -5.086,11.3067 -5.136,16.647 -0.005,0.6282 0.01,1.229 0.047,1.7966 l 8.585,32.9235 c 0.078,0.5634 0.318,0.8757 0.374,1.5014 0.551,6.168 -0.079,13.1045 -2.076,16.8681 l 0.153,0.3995 5.142,-8.5202 0.727,-1.119 c 1.732,-4.0988 2.236,-9.9163 2.022,-15.2464 -0.025,-0.6276 -0.071,-1.227 -0.135,-1.7921 l -7.336,-33.1372 c -0.008,-0.5686 0.006,-1.1695 0.042,-1.7967 0.363,-6.182 3.658,-14.2556 6.511,-17.4198 l -0.05,-0.424 -7.971,8.3501 z m 122.108,-78.5093 c -3.9406,2.064 -9.5848,7.132 -12.3758,11.685 -0.3278,0.536 -0.9336,1.193 -1.182,1.704 l -8.8474,32.745 c -0.2104,0.529 -0.4538,1.078 -0.7279,1.644 -2.7058,5.57 -6.2966,11.088 -9.8922,13.374 l -0.0649,0.421999 8.7239,-4.791999 1.1846,-0.613 c 3.5315,-2.708 6.8862,-7.441 9.3334,-12.181 0.2878,-0.558 0.2373,-0.957 0.4732,-1.475 l 10.3372,-32.417 c 0.2731,-0.498 0.5816,-1.014 0.9223,-1.542 3.3633,-5.2 10.707,-10.693 14.78,-11.943 l 0.1746,-0.39 -11.5785,3.379 z m 145.0293,-7.036 c -4.4456,-0.153 -11.8458,1.379 -16.5216,3.959 -0.5497,0.304 -1.0653,0.613 -1.5418,0.924 l -24.1614,23.9 c -0.4436,0.356 -0.9263,0.714 -1.4435,1.071 -5.1004,3.512 -11.4427,6.495 -15.7015,6.61 l -0.2727,0.329 10.4714,0.237 1.3333,0.049 c 4.407,-0.615 9.2063,-3.092 13.7438,-5.897 0.5341,-0.331 1.0339,-0.665 1.4945,-0.998 l 24.9763,-22.95 c 0.4839,-0.299 1.007,-0.595 1.564,-0.885 5.4931,-2.859 14.5679,-3.879 18.7259,-2.953 l 0.345,-0.253 -11.7182,-2.868 z m 129.5067,66.663 c -3.737,-2.412 -11.307,-5.086 -16.647,-5.136 -0.628,-0.005 -1.229,0.011 -1.796,0.047 l -32.924,8.584999 c -0.563,0.078 -0.876,0.318 -1.501,0.374 -6.168,0.551 -13.105,-0.079 -16.868,-2.074999 l -0.4,0.151999 8.52,5.142 1.119,0.727001 c 4.099,1.732 9.917,2.236 15.247,2.023 0.627,-0.026 1.227,-0.071 1.792,-0.136 l 33.137,-7.335001 c 0.569,-0.009 1.169,0.005 1.797,0.042 6.182,0.362 14.255,3.658 17.419,6.511001 l 0.425,-0.051 -8.351,-7.97 z m 78.509,122.1085 c -2.064,-3.94063 -7.132,-9.58478 -11.685,-12.37583 -0.536,-0.32778 -1.193,-0.93355 -1.704,-1.182 l -32.745,-8.84747 c -0.529,-0.2104 -1.078,-0.4538 -1.643,-0.7279 -5.571,-2.7058003 -11.089,-6.2966003 -13.374,-9.8922 l -0.423,-0.0649 4.792,8.7239 0.614,1.1846 c 2.707,3.53152 7.44,6.88624 12.18,9.33345 0.558,0.28774 0.958,0.23733 1.475,0.47323 l 32.417,10.33726 c 0.499,0.27309 1.014,0.58155 1.542,0.92231 5.2,3.36325 10.693,10.70695 11.943,14.77995 l 0.39,0.1746 -3.379,-11.5785 z"
       style="fill:#000000;fill-opacity:1;stroke:none;stroke-width:0.264999"
       id="path7440" />
    <g
       aria-label="Chedin Lab"
       transform="scale(1.0058216,0.9942121)"
       id="text9324"
       style="font-weight:bold;font-size:67.0278px;line-height:1.25;font-family:'Atkinson Hyperlegible';-inkscape-font-specification:'Atkinson Hyperlegible, Bold';letter-spacing:0px;stroke-width:0.250902">
      <path
         d="m -26.342406,57.501645 c 8.445503,0 15.282339,-3.95464 18.9018403,-10.322281 L -16.75743,43.760946 c -2.077862,3.887612 -6.166558,5.027085 -9.517948,5.027085 -6.367641,0 -11.260671,-5.094113 -11.260671,-14.478005 0,-9.115781 4.89303,-14.478005 11.126615,-14.478005 3.619502,0 7.306031,1.474611 9.316865,5.094112 l 9.3838921,-3.418417 c -3.4184181,-6.300614 -9.9201151,-10.38931 -18.3656181,-10.38931 -13.874754,0 -22.655396,9.048754 -22.655396,23.19162 0,14.276921 8.445503,23.191619 22.387285,23.191619 z"
         id="path18437" />
      <path
         d="M 8.1098674,56.697311 V 39.605222 c 0,-6.032502 1.8767784,-9.182809 6.1665576,-9.182809 4.89303,0 5.094113,3.887613 5.094113,8.579559 V 56.697311 H 29.558764 V 36.454915 c 0,-8.981725 -2.614084,-13.941782 -11.193643,-13.941782 -5.094113,0 -8.780642,2.882195 -10.2552536,5.362224 V 11.92274 H -2.0783585 v 44.774571 z"
         id="path18439" />
      <path
         d="m 33.98242,39.873333 c 0,10.99256 7.440086,17.628312 18.231562,17.628312 5.429252,0 11.059587,-2.345973 14.545033,-7.440086 l -8.110364,-2.949223 c -1.273528,1.474611 -3.552474,2.480028 -6.70278,2.480028 -3.753557,0 -7.373059,-2.278945 -7.708198,-6.970891 h 24.599204 c 0.670278,-11.729865 -6.09953,-20.10834 -17.025062,-20.10834 -9.719031,0 -17.829395,6.769808 -17.829395,17.3602 z m 18.097506,-9.786059 c 3.954641,0 7.171975,2.211918 7.306031,6.501697 H 44.237673 c 0.603251,-4.557891 4.021669,-6.501697 7.842253,-6.501697 z"
         id="path18441" />
      <path
         d="m 86.599237,57.501645 c 3.619502,0 7.574142,-1.474612 10.389309,-5.295196 l 1.340557,4.490862 h 9.719027 c -0.93839,-4.893029 -1.13947,-9.652003 -1.13947,-13.003393 V 11.92274 H 96.720435 v 16.086672 c -2.144889,-3.686529 -6.501696,-5.496279 -10.121198,-5.496279 -8.579558,0 -14.679088,6.434669 -14.679088,17.293172 0,10.858504 6.09953,17.69534 14.679088,17.69534 z M 89.8836,30.422413 c 3.95464,0 7.30603,2.815168 7.30603,9.584976 0,6.903863 -3.35139,9.584975 -7.30603,9.584975 -4.021669,0 -7.373059,-3.619501 -7.373059,-9.786059 0,-6.09953 3.35139,-9.383892 7.373059,-9.383892 z"
         id="path18443" />
      <path
         d="m 111.86864,31.226747 h 6.30061 V 56.697311 H 128.4245 V 23.451522 h -16.55586 z m 11.46175,-13.271505 c 3.35139,0 6.0325,-2.74814 6.0325,-6.032502 0,-3.3513901 -2.68111,-6.0325021 -6.0325,-6.0325021 -3.35139,0 -6.0325,2.681112 -6.0325,6.0325021 0,3.284362 2.68111,6.032502 6.0325,6.032502 z"
         id="path18445" />
      <path
         d="m 134.72502,23.451522 v 33.245789 h 10.18823 V 39.605222 c 0,-6.032502 1.87677,-9.182809 6.16655,-9.182809 4.89303,0 5.09412,3.887613 5.09412,8.579559 v 17.695339 h 10.18822 V 36.454915 c 0,-8.981725 -2.61408,-13.941782 -11.19364,-13.941782 -5.09411,0 -8.78064,2.882195 -10.25525,5.362224 l -1.27353,-4.423835 z"
         id="path18447" />
      <path
         d="M 204.70194,47.380447 V 11.92274 h -10.59039 v 44.774571 h 32.03929 v -9.316864 z"
         id="path18449" />
      <path
         d="m 229.23397,47.715586 c 0,6.032502 5.16114,9.786059 11.46175,9.786059 4.75897,0 8.64659,-1.340556 11.12662,-4.826002 l 1.2065,4.021668 h 9.45092 c -0.67028,-2.882195 -1.13948,-8.646586 -1.13948,-13.003393 v -7.30603 c 0,-10.054171 -5.29519,-13.874755 -14.74611,-13.874755 -7.64117,0 -13.0034,3.35139 -15.21531,7.775225 l 8.57955,3.083278 c 0.67028,-2.681112 2.94923,-3.95464 5.7644,-3.95464 3.55247,0 5.5633,1.407584 5.5633,5.228169 v 1.273528 c -12.86934,0.938389 -22.05214,3.686529 -22.05214,11.796893 z m 22.25323,-5.764391 v 0.804334 c 0,6.09953 -3.01625,7.775225 -7.03792,7.775225 -2.68112,0 -4.69195,-1.407584 -4.69195,-3.552474 0,-3.485445 4.69195,-4.423835 11.72987,-5.027085 z"
         id="path18451" />
      <path
         d="m 268.04297,11.92274 v 44.774571 h 8.9147 l 1.27352,-4.490862 c 2.14489,3.686529 6.56873,5.295196 10.1212,5.295196 8.57956,0 14.67909,-6.836836 14.67909,-17.69534 0,-10.858503 -6.09953,-17.293172 -14.67909,-17.293172 -3.55247,0 -7.97631,1.80975 -10.1212,5.496279 V 11.92274 Z m 9.71903,28.084649 c 0,-6.769808 3.35139,-9.584976 7.37306,-9.584976 3.95464,0 7.30603,3.284362 7.30603,9.383892 0,6.166558 -3.35139,9.786059 -7.30603,9.786059 -4.02167,0 -7.37306,-2.681112 -7.37306,-9.584975 z"
         id="path18453" />
    </g>
    <g
       aria-label="Nerf night"
       transform="scale(1.0058216,0.9942121)"
       id="text12217"
       style="font-size:10.036px;line-height:1.25;letter-spacing:0px;stroke-width:0.250902">
      <path
         d="M -6.0125155,96.799411 V 134.78931 H 2.6318919 V 107.71866 L 17.304636,134.78931 H 28.792599 V 96.799411 H 20.09132 V 123.87006 L 5.4185759,96.799411 Z"
         style="font-weight:bold;font-size:56.8711px;font-family:'Atkinson Hyperlegible';-inkscape-font-specification:'Atkinson Hyperlegible, Bold'"
         id="path18456" />
      <path
         d="m 32.65977,120.51466 c 0,9.32686 6.312692,14.9571 15.46894,14.9571 4.606559,0 9.383731,-1.99049 12.341029,-6.31269 l -6.881404,-2.50233 c -1.08055,1.25116 -3.014168,2.10423 -5.68711,2.10423 -3.184781,0 -6.255821,-1.93362 -6.540176,-5.91459 h 20.871694 c 0.568711,-9.95245 -5.17527,-17.06134 -14.44526,-17.06134 -8.24631,0 -15.127713,5.74399 -15.127713,14.72962 z m 15.355198,-8.30318 c 3.355394,0 6.085207,1.87675 6.19895,5.5165 H 41.361049 c 0.51184,-3.86724 3.412266,-5.5165 6.653919,-5.5165 z"
         style="font-weight:bold;font-size:56.8711px;font-family:'Atkinson Hyperlegible';-inkscape-font-specification:'Atkinson Hyperlegible, Bold'"
         id="path18458" />
      <path
         d="m 74.971867,134.78931 v -14.21778 c 0,-4.49282 2.274844,-6.31269 6.483306,-6.31269 0.796195,0 1.421777,0.0569 2.331715,0.17061 v -8.64441 c -4.322204,-0.22748 -7.336372,1.42178 -9.099376,5.97147 l -1.53552,-5.17527 H 66.32746 v 28.20807 z"
         style="font-weight:bold;font-size:56.8711px;font-family:'Atkinson Hyperlegible';-inkscape-font-specification:'Atkinson Hyperlegible, Bold'"
         id="path18460" />
      <path
         d="m 86.004794,113.17829 h 4.663431 v 21.61102 h 8.644407 v -21.61102 h 6.142078 v -6.59705 h -6.142078 v -3.81036 c 0,-2.16111 0.682453,-2.5592 3.753488,-2.5592 h 2.38859 v -6.824535 h -3.9241 c -7.620732,0 -10.862385,1.876746 -10.862385,8.587535 v 4.60656 h -4.663431 z"
         style="font-weight:bold;font-size:56.8711px;font-family:'Atkinson Hyperlegible';-inkscape-font-specification:'Atkinson Hyperlegible, Bold'"
         id="path18462" />
      <path
         d="m 127.63434,106.58124 v 28.20807 h 8.64441 v -14.50213 c 0,-5.1184 1.59239,-7.79135 5.23214,-7.79135 4.15159,0 4.32221,3.29853 4.32221,7.27951 v 15.01397 h 8.6444 v -17.17508 c 0,-7.62072 -2.21797,-11.82919 -9.49747,-11.82919 -4.3222,0 -7.45011,2.44546 -8.70128,4.54969 l -1.08055,-3.75349 z"
         style="font-weight:bold;font-size:56.8711px;font-family:'Atkinson Hyperlegible';-inkscape-font-specification:'Atkinson Hyperlegible, Bold'"
         id="path18464" />
      <path
         d="m 157.83274,113.17829 h 5.34589 v 21.61102 h 8.70128 v -28.20807 h -14.04717 z m 9.72496,-11.26048 c 2.84356,0 5.1184,-2.331715 5.1184,-5.118399 0,-2.843555 -2.27484,-5.118399 -5.1184,-5.118399 -2.84355,0 -5.1184,2.274844 -5.1184,5.118399 0,2.786684 2.27485,5.118399 5.1184,5.118399 z"
         style="font-weight:bold;font-size:56.8711px;font-family:'Atkinson Hyperlegible';-inkscape-font-specification:'Atkinson Hyperlegible, Bold'"
         id="path18466" />
      <path
         d="m 175.74707,120.05969 c 0,8.58754 6.02833,13.70594 12.17041,13.70594 3.18478,0 6.48331,-1.42178 8.92876,-4.43595 v 5.06153 c 0,3.86723 -2.5592,5.34588 -6.02833,5.34588 -1.99049,0 -4.20846,-0.62558 -5.23214,-2.67294 l -7.05202,2.5592 c 2.61607,5.17527 7.84821,6.71079 12.51164,6.71079 8.81502,0 14.38839,-4.15159 14.38839,-13.64906 v -26.10384 h -7.45011 l -1.13743,3.86724 c -2.1611,-3.07104 -5.63023,-4.72031 -9.21311,-4.72031 -5.85773,0 -11.88606,4.49282 -11.88606,14.33152 z m 8.98563,-0.45497 c 0,-4.94778 2.84355,-7.10889 6.25582,-7.10889 3.3554,0 6.19895,1.81988 6.19895,7.33638 0,5.51649 -2.84355,7.22263 -6.19895,7.22263 -3.41227,0 -6.25582,-2.44546 -6.25582,-7.45012 z"
         style="font-weight:bold;font-size:56.8711px;font-family:'Atkinson Hyperlegible';-inkscape-font-specification:'Atkinson Hyperlegible, Bold'"
         id="path18468" />
      <path
         d="m 219.82207,134.78931 v -14.50213 c 0,-5.1184 1.59239,-7.79135 5.23214,-7.79135 4.15159,0 4.32221,3.29853 4.32221,7.27951 v 15.01397 h 8.6444 v -17.17508 c 0,-7.62072 -2.21797,-11.82919 -9.49747,-11.82919 -4.3222,0 -7.45011,2.44546 -8.70128,4.54969 V 96.799411 h -8.64441 v 37.989899 z"
         style="font-weight:bold;font-size:56.8711px;font-family:'Atkinson Hyperlegible';-inkscape-font-specification:'Atkinson Hyperlegible, Bold'"
         id="path18470" />
      <path
         d="m 240.86427,113.17829 h 4.66343 v 13.64906 c 0,6.65392 2.38858,7.96196 9.32686,7.96196 h 5.45962 v -7.05202 h -2.50233 c -2.78668,0 -3.63975,-0.51184 -3.63975,-3.18478 v -11.37422 h 6.14208 v -6.59705 h -6.14208 v -7.052016 h -8.6444 v 7.052016 h -4.66343 z"
         style="font-weight:bold;font-size:56.8711px;font-family:'Atkinson Hyperlegible';-inkscape-font-specification:'Atkinson Hyperlegible, Bold'"
         id="path18472" />
    </g>
    <g
       aria-label="10/8/22"
       transform="scale(1.0058216,0.9942121)"
       id="text13885"
       style="font-size:10.036px;line-height:1.25;letter-spacing:0px;stroke-width:0.250902">
      <path
         d="m 22.08165,197.28339 h 8.644408 v 25.47825 h 8.587536 v -37.98989 h -6.540177 c -2.047359,5.1184 -4.720301,5.51649 -10.691767,5.51649 z"
         style="font-weight:bold;font-size:56.8711px;font-family:'Atkinson Hyperlegible';-inkscape-font-specification:'Atkinson Hyperlegible, Bold'"
         id="path18475" />
      <path
         d="m 47.446159,203.70982 c 0,12.11355 5.630239,19.73428 16.265135,19.73428 10.691767,0 16.322006,-7.62073 16.322006,-19.73428 0,-12.17041 -5.630239,-19.62053 -16.322006,-19.62053 -10.634896,0 -16.265135,7.45012 -16.265135,19.62053 z m 9.32686,-5.45962 11.544834,16.60636 c -1.194293,1.47865 -2.786684,2.1611 -4.606559,2.1611 -4.379075,0 -7.393244,-4.15159 -7.393244,-13.30784 0,-2.10423 0.170614,-3.86723 0.454969,-5.45962 z m 6.938275,-7.73447 c 4.435946,0 7.393243,4.03785 7.393243,13.25096 0,1.81988 -0.113742,3.52601 -0.341227,5.00466 L 59.332219,192.39247 c 1.194293,-1.25116 2.672942,-1.87674 4.379075,-1.87674 z"
         style="font-weight:bold;font-size:56.8711px;font-family:'Atkinson Hyperlegible';-inkscape-font-specification:'Atkinson Hyperlegible, Bold'"
         id="path18477" />
      <path
         d="m 82.819896,222.76164 h 8.701278 l 14.729616,-37.98989 h -8.587537 z"
         style="font-weight:bold;font-size:56.8711px;font-family:'Atkinson Hyperlegible';-inkscape-font-specification:'Atkinson Hyperlegible, Bold'"
         id="path18479" />
      <path
         d="m 124.90448,223.4441 c 8.87189,0 15.58268,-4.37908 15.58268,-12.3979 0,-4.66343 -2.27484,-7.39325 -6.54018,-9.78183 1.1943,-1.76301 1.87675,-3.86724 1.87675,-6.19895 0,-6.02834 -4.43595,-10.97613 -10.91925,-10.97613 -6.48331,0 -10.97613,4.94779 -10.97613,10.97613 0,2.33171 0.68246,4.43594 1.81988,6.25582 -4.26533,2.33171 -6.48331,5.06153 -6.48331,9.66808 0,8.0757 6.71079,12.45478 15.63956,12.45478 z m -6.71079,-12.3979 c 0,-3.18479 2.72981,-5.00466 6.71079,-5.00466 3.86723,0 6.65392,1.81987 6.65392,5.00466 0,3.07104 -2.78669,5.23214 -6.65392,5.23214 -3.98098,0 -6.71079,-2.10423 -6.71079,-5.23214 z m 6.71079,-19.84802 c 2.1611,0 3.81036,1.70613 3.81036,3.92411 0,2.1611 -1.70613,3.9241 -3.81036,3.9241 -2.1611,0 -3.92411,-1.763 -3.92411,-3.9241 0,-2.21798 1.76301,-3.92411 3.92411,-3.92411 z"
         style="font-weight:bold;font-size:56.8711px;font-family:'Atkinson Hyperlegible';-inkscape-font-specification:'Atkinson Hyperlegible, Bold'"
         id="path18481" />
      <path
         d="m 143.50122,222.76164 h 8.70128 l 14.72962,-37.98989 h -8.58754 z"
         style="font-weight:bold;font-size:56.8711px;font-family:'Atkinson Hyperlegible';-inkscape-font-specification:'Atkinson Hyperlegible, Bold'"
         id="path18483" />
      <path
         d="m 169.71878,215.65275 v 7.10889 h 29.17487 v -7.10889 h -18.14188 c 11.14674,-6.4833 17.97127,-12.79599 17.97127,-20.47359 0,-7.10889 -5.80086,-11.08987 -13.53532,-11.08987 -6.71079,0 -11.99981,2.9573 -14.04717,8.24631 l 7.84822,2.84356 c 0.85306,-3.52601 3.41226,-4.66343 5.80085,-4.66343 2.78668,0 5.23214,1.53552 5.23214,4.49281 0,6.42644 -11.43109,14.38839 -17.85753,18.88121 z"
         style="font-weight:bold;font-size:56.8711px;font-family:'Atkinson Hyperlegible';-inkscape-font-specification:'Atkinson Hyperlegible, Bold'"
         id="path18485" />
      <path
         d="m 203.04515,215.65275 v 7.10889 h 29.17487 v -7.10889 h -18.14188 c 11.14674,-6.4833 17.97127,-12.79599 17.97127,-20.47359 0,-7.10889 -5.80085,-11.08987 -13.53532,-11.08987 -6.71079,0 -11.99981,2.9573 -14.04717,8.24631 l 7.84822,2.84356 c 0.85306,-3.52601 3.41226,-4.66343 5.80085,-4.66343 2.78668,0 5.23214,1.53552 5.23214,4.49281 0,6.42644 -11.43109,14.38839 -17.85753,18.88121 z"
         style="font-weight:bold;font-size:56.8711px;font-family:'Atkinson Hyperlegible';-inkscape-font-specification:'Atkinson Hyperlegible, Bold'"
         id="path18487" />
    </g>
    <path
       id="path14847"
       style="fill:none;fill-opacity:1;stroke:#000000;stroke-width:5.00062;stroke-opacity:1"
       d="m 127.8912,-285.4607 a 86.2127,86.2127 0 0 0 -86.21281,86.21231 86.2127,86.2127 0 0 0 0.499195,8.73435 A 308.74718,308.74718 0 0 0 -180.85634,105.934 308.74718,308.74718 0 0 0 127.8912,414.68105 308.74718,308.74718 0 0 0 436.63825,105.934 308.74718,308.74718 0 0 0 213.62139,-190.66493 a 86.2127,86.2127 0 0 0 0.48212,-8.58346 86.2127,86.2127 0 0 0 -86.21231,-86.21231 z" />
    <circle
       style="fill:none;stroke:#000000;stroke-width:5.29167"
       id="path17988"
       cx="127.89095"
       cy="-229.78076"
       r="29.830009" />
  </g>
</svg>
