<?xml version="1.0" encoding="UTF-8" standalone="no"?>
<!-- Created with Inkscape (http://www.inkscape.org/) -->

<svg
   width="114.06152mm"
   height="62.190849mm"
   viewBox="0 0 114.06152 62.190849"
   version="1.1"
   id="svg24971"
   inkscape:version="1.1.2 (0a00cf5339, 2022-02-04)"
   sodipodi:docname="tagBread.svg"
   xmlns:inkscape="http://www.inkscape.org/namespaces/inkscape"
   xmlns:sodipodi="http://sodipodi.sourceforge.net/DTD/sodipodi-0.dtd"
   xmlns="http://www.w3.org/2000/svg"
   xmlns:svg="http://www.w3.org/2000/svg">
  <sodipodi:namedview
     id="namedview24973"
     pagecolor="#ffffff"
     bordercolor="#666666"
     borderopacity="1.0"
     inkscape:pageshadow="2"
     inkscape:pageopacity="0.0"
     inkscape:pagecheckerboard="0"
     inkscape:document-units="mm"
     showgrid="false"
     inkscape:zoom="0.33184273"
     inkscape:cx="132.59293"
     inkscape:cy="215.46351"
     inkscape:window-width="1070"
     inkscape:window-height="689"
     inkscape:window-x="0"
     inkscape:window-y="0"
     inkscape:window-maximized="1"
     inkscape:current-layer="layer1" />
  <defs
     id="defs24968">
    <clipPath
       clipPathUnits="userSpaceOnUse"
       id="clipPath18961">
      <path
         id="path18963"
         style="fill:none;stroke:#000000;stroke-width:1.00009"
         d="m 18.896238,66.747495 47.643274,57.527145 c 6.591641,7.95911 5.38689,19.79822 -2.701241,26.54508 l -18.243357,15.21802 c -8.088131,6.74685 -19.906148,5.77092 -26.49779,-2.1882 L -28.54615,106.3224 c -6.591643,-7.959116 -5.386889,-19.798222 2.701242,-26.54508 L -7.6015501,64.559302 C 0.48658107,57.812444 12.304594,58.788379 18.896238,66.747495 Z" />
    </clipPath>
    <clipPath
       clipPathUnits="userSpaceOnUse"
       id="clipPath18955">
      <path
         id="path18957"
         style="fill:none;stroke:#000000;stroke-width:1.00009"
         d="m 18.896237,66.747496 47.643274,57.527144 c 6.591642,7.95911 5.386891,19.79822 -2.70124,26.54508 l -18.243357,15.21802 c -8.088131,6.74685 -19.906148,5.77092 -26.49779,-2.1882 L -28.54615,106.3224 c -6.591643,-7.959116 -5.386889,-19.798222 2.701243,-26.545079 L -7.6015501,64.559302 C 0.48658107,57.812444 12.304594,58.788379 18.896237,66.747496 Z" />
    </clipPath>
  </defs>
  <g
     inkscape:label="Layer 1"
     inkscape:groupmode="layer"
     id="layer1"
     transform="translate(-72.931659,-85.312629)">
    <g
       id="g24872"
       transform="translate(30.703353,-16.286641)">
      <rect
         style="fill:none;stroke:#000000;stroke-width:1;stroke-miterlimit:4;stroke-dasharray:none"
         id="rect19561"
         width="113.06151"
         height="61.190845"
         x="42.728306"
         y="102.09927"
         ry="18.830349" />
      <circle
         style="fill:none;stroke:#000000;stroke-width:0.81;stroke-miterlimit:4;stroke-dasharray:none"
         id="circle19563"
         cx="59.841"
         cy="132.6947"
         r="8.8245993" />
      <g
         id="g19573"
         transform="translate(-5.1435622,74.345843)">
        <g
           aria-label="Team"
           id="text19567"
           style="font-weight:bold;font-size:9.70137px;line-height:1.25;font-family:'DejaVu Sans Mono';-inkscape-font-specification:'DejaVu Sans Mono, Bold';letter-spacing:0px;stroke-width:0.264583">
          <path
             d="m 85.24579,49.955978 h -1.397414 v -5.850191 h -1.795322 v -1.222145 h 4.988058 v 1.222145 H 85.24579 Z"
             id="path24789" />
          <path
             d="m 92.687612,49.695444 q -0.483173,0.198953 -0.985295,0.29843 -0.502122,0.09948 -1.061087,0.09948 -1.331097,0 -2.036909,-0.710549 -0.701076,-0.715287 -0.701076,-2.055857 0,-1.297937 0.677391,-2.05112 0.67739,-0.753182 1.847429,-0.753182 1.179512,0 1.828481,0.701075 0.653705,0.696339 0.653705,1.965854 v 0.563703 H 89.31487 q 0.0047,0.625283 0.369486,0.933188 0.364749,0.307905 1.08951,0.307905 0.478436,0 0.942662,-0.137373 0.464226,-0.137373 0.971084,-0.435804 z m -1.174775,-2.984309 q -0.0095,-0.549491 -0.28422,-0.828974 -0.270009,-0.28422 -0.800552,-0.28422 -0.478437,0 -0.762657,0.293694 -0.28422,0.288957 -0.336327,0.824237 z"
             id="path24791" />
          <path
             d="m 96.624057,47.464318 q -0.776868,0 -1.084772,0.198954 -0.307905,0.198954 -0.307905,0.682127 0,0.360012 0.213165,0.573177 0.213164,0.213165 0.577913,0.213165 0.549492,0 0.85266,-0.412119 0.303168,-0.416856 0.303168,-1.160564 v -0.09474 z m 1.932695,-0.535281 v 3.026941 h -1.378466 v -0.592124 q -0.251061,0.350538 -0.644232,0.540017 -0.393171,0.18948 -0.866871,0.18948 -0.904766,0 -1.411625,-0.478436 -0.502121,-0.478437 -0.502121,-1.335834 0,-0.928451 0.601598,-1.368992 0.601599,-0.445278 1.86164,-0.445278 h 0.961611 v -0.232112 q 0,-0.336327 -0.246324,-0.506859 -0.241587,-0.175269 -0.715287,-0.175269 -0.497385,0 -0.966347,0.127899 -0.464226,0.123162 -0.971085,0.397908 v -1.18425 q 0.459489,-0.189479 0.933189,-0.279482 0.473699,-0.09 1.004243,-0.09 1.2932,0 1.81427,0.525806 0.525807,0.525807 0.525807,1.880588 z"
             id="path24793" />
          <path
             d="m 102.4174,45.181085 q 0.15633,-0.336327 0.39791,-0.497384 0.24159,-0.161058 0.59213,-0.161058 0.68686,0 0.9474,0.473699 0.26527,0.4737 0.26527,1.970591 v 2.989045 h -1.13688 v -3.405901 q 0,-0.592124 -0.09,-0.791078 -0.09,-0.198954 -0.32686,-0.198954 -0.23685,0 -0.33159,0.203691 -0.0947,0.203691 -0.0947,0.786341 v 3.405901 h -1.12267 v -3.405901 q 0,-0.58265 -0.0947,-0.786341 -0.0947,-0.203691 -0.33158,-0.203691 -0.23685,0 -0.32686,0.198954 -0.09,0.198954 -0.09,0.791078 v 3.405901 h -1.13688 v -5.305436 h 1.00898 v 0.549491 q 0.11843,-0.312642 0.37896,-0.492647 0.26053,-0.184743 0.58265,-0.184743 0.32212,0 0.58739,0.194217 0.26527,0.189479 0.32211,0.464225 z"
             id="path24795" />
        </g>
        <g
           aria-label="BAD"
           id="text19571"
           style="font-style:italic;font-weight:bold;font-size:21.1667px;line-height:1.25;font-family:Hack;-inkscape-font-specification:'Hack, Bold Italic';letter-spacing:0px;stroke-width:0.264583">
          <path
             d="m 114.35497,38.762856 h 4.98162 q 2.16007,0 3.29696,0.857831 1.10587,0.85783 1.10587,2.563155 0,1.643313 -0.98185,2.676843 -0.98185,1.03353 -2.79053,1.229901 1.43661,0.113688 2.23242,0.930177 0.79582,0.806154 0.79582,2.232426 0,1.03353 -0.39274,2.025719 -0.3824,0.961183 -1.10588,1.622643 -0.76481,0.692465 -1.9637,1.002524 -1.1989,0.310059 -3.20395,0.310059 h -4.97128 z m 3.81373,6.015147 q 1.2609,0 1.89136,-0.568442 0.63045,-0.568442 0.63045,-1.601972 0,-0.764812 -0.44442,-1.085207 -0.45475,-0.330729 -1.37459,-0.330729 h -2.03606 l -0.7028,3.58635 z m -1.35393,6.997 q 1.62264,0 2.37712,-0.692466 0.75448,-0.692465 0.75448,-2.04639 0,-0.558106 -0.1447,-0.8785 -0.13435,-0.320395 -0.40307,-0.527101 -0.54777,-0.423747 -1.69499,-0.423747 h -2.03606 l -0.88883,4.568204 z"
             id="path24798" />
          <path
             d="m 130.32301,38.783527 h 3.72071 l 1.16789,15.430607 h -3.02824 l -0.1447,-3.813727 h -4.13412 l -1.67432,3.813727 h -3.09025 z m 1.60197,9.105402 -0.2067,-6.273529 -2.72852,6.273529 z"
             id="path24800" />
          <path
             d="m 139.97619,38.783527 h 3.25562 q 1.4366,0 2.55282,0.310059 1.11621,0.310059 1.86035,0.961183 1.44694,1.260907 1.44694,3.865404 0,0.37207 -0.031,0.888836 -0.031,0.506429 -0.10336,0.992189 -0.062,0.423747 -0.18603,1.054201 -0.11369,0.620118 -0.23771,1.126548 -0.20671,0.837159 -0.45476,1.508954 -0.24804,0.671794 -0.47542,1.136883 -0.29973,0.620118 -0.64079,1.074872 -0.34107,0.444418 -0.64079,0.744141 -0.94051,0.930178 -2.33578,1.353925 -1.30225,0.413412 -3.60702,0.413412 h -3.41065 z m 1.56063,12.681417 q 1.15755,0 1.95337,-0.454754 0.43408,-0.237712 0.72347,-0.578777 0.28939,-0.341065 0.51676,-0.785483 0.24805,-0.496094 0.47543,-1.178224 0.23771,-0.692465 0.40308,-1.436607 0.1757,-0.775148 0.24804,-1.488284 0.0827,-0.723471 0.0827,-1.250572 0,-0.754477 -0.16536,-1.260907 -0.15503,-0.506429 -0.47542,-0.837159 -0.65113,-0.661459 -1.98438,-0.661459 h -0.8475 l -1.92236,9.932226 z"
             id="path24802" />
        </g>
      </g>
      <g
         aria-label="Hollebread"
         id="text19579"
         style="font-weight:bold;font-size:9.70137px;line-height:1.25;font-family:'DejaVu Sans Mono';-inkscape-font-specification:'DejaVu Sans Mono, Bold';letter-spacing:0px;stroke-width:0.264583">
        <path
           d="m 79.39697,137.56185 h 1.397414 v 2.69535 h 1.747952 v -2.69535 h 1.397414 v 7.07234 h -1.397414 v -3.14537 h -1.747952 v 3.14537 H 79.39697 Z"
           id="path24805" />
        <path
           d="m 87.506709,140.32826 q -0.497385,0 -0.781605,0.44054 -0.28422,0.4358 -0.28422,1.2174 0,0.78161 0.28422,1.22215 0.28422,0.4358 0.781605,0.4358 0.502121,0 0.786341,-0.4358 0.28422,-0.44054 0.28422,-1.22215 0,-0.7816 -0.28422,-1.2174 -0.28422,-0.44054 -0.786341,-0.44054 z m -2.453765,1.65794 q 0,-1.28372 0.66318,-2.03217 0.667916,-0.75318 1.790585,-0.75318 1.127405,0 1.790585,0.75318 0.667916,0.74845 0.667916,2.03217 0,1.28373 -0.667916,2.03691 -0.66318,0.74845 -1.790585,0.74845 -1.122669,0 -1.790585,-0.74845 -0.66318,-0.75318 -0.66318,-2.03691 z"
           id="path24807" />
        <path
           d="m 92.262654,142.42201 v -4.09277 h -1.406889 v -1.06582 h 2.794829 v 5.15859 q 0,0.62528 0.194217,0.88582 0.194217,0.26053 0.658442,0.26053 h 1.108458 v 1.06583 H 94.11482 q -0.990033,0 -1.4211,-0.5116 -0.431066,-0.5116 -0.431066,-1.70058 z"
           id="path24809" />
        <path
           d="m 98.103371,142.42201 v -4.09277 h -1.406888 v -1.06582 h 2.794828 v 5.15859 q 0,0.62528 0.194217,0.88582 0.194217,0.26053 0.658442,0.26053 h 1.10846 v 1.06583 h -1.496893 q -0.990033,0 -1.421099,-0.5116 -0.431067,-0.5116 -0.431067,-1.70058 z"
           id="path24811" />
        <path
           d="m 107.33104,144.37365 q -0.48317,0.19895 -0.98529,0.29843 -0.50213,0.0995 -1.06109,0.0995 -1.3311,0 -2.03691,-0.71055 -0.70108,-0.71529 -0.70108,-2.05586 0,-1.29793 0.67739,-2.05112 0.6774,-0.75318 1.84743,-0.75318 1.17952,0 1.82848,0.70108 0.65371,0.69633 0.65371,1.96585 v 0.5637 h -3.59538 q 0.005,0.62529 0.36949,0.93319 0.36474,0.30791 1.0895,0.30791 0.47844,0 0.94267,-0.13738 0.46422,-0.13737 0.97108,-0.4358 z m -1.17477,-2.98431 q -0.009,-0.54949 -0.28422,-0.82897 -0.27001,-0.28422 -0.80056,-0.28422 -0.47843,0 -0.76265,0.29369 -0.28422,0.28896 -0.33633,0.82424 z"
           id="path24813" />
        <path
           d="m 111.97804,141.99568 q 0,-0.7674 -0.2558,-1.2032 -0.2558,-0.4358 -0.70582,-0.4358 -0.45001,0 -0.71054,0.4358 -0.26054,0.4358 -0.26054,1.2032 0,0.76739 0.26054,1.2032 0.26053,0.4358 0.71054,0.4358 0.45002,0 0.70582,-0.4358 0.2558,-0.43581 0.2558,-1.2032 z m -1.9327,-1.91375 q 0.2558,-0.44054 0.59213,-0.65844 0.34106,-0.22264 0.76739,-0.22264 0.94266,0 1.44952,0.72002 0.5116,0.72003 0.5116,2.06533 0,1.32636 -0.50213,2.05586 -0.50212,0.7295 -1.41162,0.7295 -0.47844,0 -0.83371,-0.23211 -0.35528,-0.23212 -0.57318,-0.69161 v 0.78635 h -1.3832 v -7.37077 h 1.3832 z"
           id="path24815" />
        <path
           d="m 119.24459,140.79248 q -0.22738,-0.20843 -0.53528,-0.31264 -0.30317,-0.10421 -0.66792,-0.10421 -0.44054,0 -0.77213,0.15632 -0.32685,0.15158 -0.50686,0.44527 -0.11369,0.18001 -0.16106,0.43581 -0.0426,0.2558 -0.0426,0.77687 v 2.44429 h -1.38794 v -5.30544 h 1.38794 v 0.82424 q 0.20369,-0.45476 0.62528,-0.70108 0.4216,-0.25106 0.9853,-0.25106 0.28422,0 0.55423,0.071 0.27474,0.0663 0.52107,0.19896 z"
           id="path24817" />
        <path
           d="m 124.85319,144.37365 q -0.48317,0.19895 -0.98529,0.29843 -0.50212,0.0995 -1.06109,0.0995 -1.3311,0 -2.03691,-0.71055 -0.70107,-0.71529 -0.70107,-2.05586 0,-1.29793 0.67739,-2.05112 0.67739,-0.75318 1.84743,-0.75318 1.17951,0 1.82848,0.70108 0.6537,0.69633 0.6537,1.96585 v 0.5637 h -3.59538 q 0.005,0.62529 0.36949,0.93319 0.36475,0.30791 1.08951,0.30791 0.47843,0 0.94266,-0.13738 0.46422,-0.13737 0.97108,-0.4358 z m -1.17477,-2.98431 q -0.009,-0.54949 -0.28422,-0.82897 -0.27001,-0.28422 -0.80055,-0.28422 -0.47844,0 -0.76266,0.29369 -0.28422,0.28896 -0.33633,0.82424 z"
           id="path24819" />
        <path
           d="m 128.78964,142.14253 q -0.77687,0 -1.08477,0.19895 -0.30791,0.19895 -0.30791,0.68213 0,0.36001 0.21317,0.57317 0.21316,0.21317 0.57791,0.21317 0.54949,0 0.85266,-0.41212 0.30317,-0.41686 0.30317,-1.16056 v -0.0947 z m 1.93269,-0.53529 v 3.02695 h -1.37846 v -0.59213 q -0.25106,0.35054 -0.64424,0.54002 -0.39317,0.18948 -0.86687,0.18948 -0.90476,0 -1.41162,-0.47844 -0.50212,-0.47843 -0.50212,-1.33583 0,-0.92845 0.6016,-1.36899 0.60159,-0.44528 1.86164,-0.44528 h 0.96161 v -0.23211 q 0,-0.33633 -0.24633,-0.50686 -0.24158,-0.17527 -0.71528,-0.17527 -0.49739,0 -0.96635,0.1279 -0.46423,0.12316 -0.97109,0.39791 v -1.18425 q 0.45949,-0.18948 0.93319,-0.27949 0.4737,-0.09 1.00425,-0.09 1.2932,0 1.81427,0.52581 0.5258,0.5258 0.5258,1.88058 z"
           id="path24821" />
        <path
           d="m 135.06142,140.08193 v -2.81851 h 1.3832 v 7.37077 h -1.3832 v -0.78635 q -0.22264,0.45949 -0.57791,0.69161 -0.35054,0.23211 -0.82898,0.23211 -0.9095,0 -1.41162,-0.7295 -0.50212,-0.7295 -0.50212,-2.05586 0,-1.3453 0.50686,-2.06533 0.51159,-0.72002 1.45425,-0.72002 0.42633,0 0.76266,0.22264 0.34106,0.2179 0.59686,0.65844 z m -1.93269,1.91375 q 0,0.76739 0.25579,1.2032 0.2558,0.4358 0.70582,0.4358 0.45001,0 0.71055,-0.4358 0.26053,-0.43581 0.26053,-1.2032 0,-0.7674 -0.26053,-1.2032 -0.26054,-0.4358 -0.71055,-0.4358 -0.45002,0 -0.70582,0.4358 -0.25579,0.4358 -0.25579,1.2032 z"
           id="path24823" />
      </g>
      <rect
         style="fill:#000000;fill-opacity:1;stroke:#000000;stroke-width:0.847446;stroke-miterlimit:4;stroke-dasharray:none"
         id="rect19581"
         width="7.1001859"
         height="96.724968"
         x="-28.990046"
         y="43.689121"
         ry="0"
         transform="matrix(0.64662451,-0.76280846,0.77517331,0.63174863,-2.4009934,74.345843)"
         clip-path="url(#clipPath18961)" />
      <g
         id="g24653">
        <path
           id="path19575"
           style="fill:none;stroke:#000000"
           d="m 61.558655,102.09927 h 75.400815 c 10.43201,0 18.83035,8.39834 18.83035,18.83035 v 23.53015 c 0,10.43201 -8.39834,18.83035 -18.83035,18.83035 H 61.558655 c -10.432013,0 -18.830349,-8.39834 -18.830349,-18.83035 v -23.53015 c 0,-10.43201 8.398336,-18.83035 18.830349,-18.83035 z" />
        <path
           id="path19583"
           style="stroke:#000000;stroke-width:0.847446"
           transform="matrix(0.64662451,-0.76280846,0.77517331,0.63174863,-2.4009934,74.345843)"
           d="m -15.304107,47.396019 h 7.1001862 v 96.724971 h -7.1001862 z"
           clip-path="url(#clipPath18955)" />
        <circle
           style="fill:none;stroke:#ff0000;stroke-width:0.81;stroke-miterlimit:4;stroke-dasharray:none;stroke-opacity:1"
           id="circle19585"
           cx="59.841"
           cy="132.6947"
           r="8.8245993" />
      </g>
    </g>
  </g>
</svg>
